<svg xmlns="http://www.w3.org/2000/svg" xmlns:xlink="http://www.w3.org/1999/xlink" width="1366" zoomAndPan="magnify" viewBox="0 0 1024.5 576" height="768" preserveAspectRatio="xMidYMid meet" version="1.0"><defs><g/><clipPath id="7639aa617e"><path d="M 0 0.140625 L 1024 0.140625 L 1024 575.859375 L 0 575.859375 Z M 0 0.140625 " clip-rule="nonzero"/></clipPath><clipPath id="72d35b4707"><path d="M 39 36 L 67.5625 36 L 67.5625 50 L 39 50 Z M 39 36 " clip-rule="nonzero"/></clipPath><clipPath id="d3cfde1619"><path d="M 13 6.578125 L 56 6.578125 L 56 65 L 13 65 Z M 13 6.578125 " clip-rule="nonzero"/></clipPath><clipPath id="b4e92033c9"><path d="M 5.871094 20 L 34 20 L 34 33 L 5.871094 33 Z M 5.871094 20 " clip-rule="nonzero"/></clipPath><clipPath id="2ff7e6e39e"><path d="M 6 53 L 34 53 L 34 66.4375 L 6 66.4375 Z M 6 53 " clip-rule="nonzero"/></clipPath><clipPath id="5a786c9fc6"><path d="M 76 5 L 300.679688 5 L 300.679688 73 L 76 73 Z M 76 5 " clip-rule="nonzero"/></clipPath><clipPath id="58fd830121"><rect x="0" width="225" y="0" height="68"/></clipPath><clipPath id="8489631c92"><rect x="0" width="301" y="0" height="87"/></clipPath></defs><g clip-path="url(#7639aa617e)"><path fill="#ffffff" d="M 0 0.140625 L 1024 0.140625 L 1024 575.859375 L 0 575.859375 Z M 0 0.140625 " fill-opacity="1" fill-rule="nonzero"/><path fill="#020212" d="M 0 0.140625 L 1024 0.140625 L 1024 575.859375 L 0 575.859375 Z M 0 0.140625 " fill-opacity="1" fill-rule="nonzero"/></g><g transform="matrix(1, 0, 0, 1, 359, 242)"><g clip-path="url(#8489631c92)"><g clip-path="url(#72d35b4707)"><path fill="#b4b4b4" d="M 47.003906 47.382812 C 44.542969 47.382812 42.539062 45.453125 42.539062 43.082031 C 42.539062 40.707031 44.539062 38.78125 47.003906 38.78125 C 47.964844 38.78125 48.917969 39.085938 49.6875 39.636719 C 50.019531 39.878906 50.09375 40.339844 49.851562 40.671875 C 49.613281 41.003906 49.152344 41.078125 48.820312 40.839844 C 48.300781 40.464844 47.65625 40.261719 47.003906 40.261719 C 45.359375 40.261719 44.019531 41.527344 44.019531 43.082031 C 44.019531 44.632812 45.359375 45.898438 47.003906 45.898438 C 47.65625 45.898438 48.300781 45.695312 48.820312 45.320312 C 49.152344 45.082031 49.613281 45.15625 49.851562 45.488281 C 50.09375 45.820312 50.019531 46.28125 49.6875 46.523438 C 48.917969 47.078125 47.964844 47.382812 47.003906 47.382812 Z M 39.691406 36.859375 L 39.691406 49.308594 L 67.601562 49.308594 L 67.601562 36.859375 Z M 61.820312 47.382812 C 60.203125 47.382812 58.886719 46.289062 58.886719 44.949219 C 58.886719 44.539062 59.214844 44.207031 59.625 44.207031 C 60.035156 44.207031 60.367188 44.539062 60.367188 44.949219 C 60.367188 45.457031 61.046875 45.902344 61.816406 45.902344 C 62.59375 45.902344 63.269531 45.457031 63.269531 44.949219 C 63.269531 44.433594 62.617188 44.152344 61.535156 43.746094 C 60.355469 43.300781 58.886719 42.746094 58.886719 41.210938 C 58.886719 39.871094 60.203125 38.78125 61.816406 38.78125 C 63.433594 38.78125 64.75 39.871094 64.75 41.210938 C 64.75 41.621094 64.417969 41.953125 64.011719 41.953125 C 63.601562 41.953125 63.269531 41.621094 63.269531 41.210938 C 63.269531 40.703125 62.59375 40.261719 61.816406 40.261719 C 61.046875 40.261719 60.367188 40.703125 60.367188 41.210938 C 60.367188 41.6875 61.035156 41.972656 62.058594 42.359375 C 63.257812 42.8125 64.75 43.375 64.75 44.949219 C 64.753906 46.289062 63.4375 47.382812 61.820312 47.382812 Z M 54.4375 47.382812 C 52.824219 47.382812 51.507812 46.289062 51.507812 44.949219 C 51.507812 44.539062 51.835938 44.207031 52.246094 44.207031 C 52.65625 44.207031 52.988281 44.539062 52.988281 44.949219 C 52.988281 45.457031 53.664062 45.902344 54.4375 45.902344 C 55.214844 45.902344 55.890625 45.457031 55.890625 44.949219 C 55.890625 44.433594 55.238281 44.152344 54.15625 43.746094 C 52.976562 43.300781 51.507812 42.746094 51.507812 41.210938 C 51.507812 39.871094 52.824219 38.78125 54.4375 38.78125 C 56.054688 38.78125 57.371094 39.871094 57.371094 41.210938 C 57.371094 41.621094 57.042969 41.953125 56.632812 41.953125 C 56.222656 41.953125 55.890625 41.621094 55.890625 41.210938 C 55.890625 40.703125 55.214844 40.261719 54.4375 40.261719 C 53.664062 40.261719 52.988281 40.703125 52.988281 41.210938 C 52.988281 41.6875 53.65625 41.972656 54.679688 42.359375 C 55.878906 42.8125 57.371094 43.375 57.371094 44.949219 C 57.375 46.289062 56.054688 47.382812 54.4375 47.382812 Z M 54.4375 47.382812 " fill-opacity="1" fill-rule="evenodd"/></g><g clip-path="url(#d3cfde1619)"><path fill="#737373" d="M 34.519531 34.285156 L 13.671875 34.285156 L 13.671875 52.195312 L 34.699219 52.195312 C 35.109375 52.195312 35.4375 52.527344 35.4375 52.9375 L 35.4375 54.652344 L 49.117188 54.652344 C 49.527344 54.652344 49.859375 54.984375 49.859375 55.390625 C 49.859375 55.800781 49.527344 56.132812 49.117188 56.132812 L 35.4375 56.132812 L 35.4375 64.046875 L 51.238281 64.046875 C 53.394531 64.046875 55.148438 62.292969 55.148438 60.132812 L 55.148438 50.789062 L 38.949219 50.789062 C 38.539062 50.789062 38.207031 50.457031 38.207031 50.046875 L 38.207031 40.078125 L 33.011719 40.078125 C 32.601562 40.078125 32.269531 39.746094 32.269531 39.339844 C 32.269531 38.929688 32.601562 38.597656 33.011719 38.597656 L 38.207031 38.597656 L 38.207031 36.117188 C 38.207031 35.707031 38.539062 35.378906 38.949219 35.378906 L 55.148438 35.378906 L 55.148438 10.511719 C 55.148438 8.355469 53.394531 6.597656 51.234375 6.597656 L 17.582031 6.597656 C 15.425781 6.597656 13.667969 8.355469 13.667969 10.511719 L 13.667969 18.875 L 34.519531 18.875 C 34.929688 18.875 35.257812 19.207031 35.257812 19.617188 L 35.257812 22.542969 L 49.113281 22.542969 C 49.523438 22.542969 49.855469 22.875 49.855469 23.285156 C 49.855469 23.691406 49.523438 24.023438 49.113281 24.023438 L 35.257812 24.023438 L 35.257812 30.570312 L 49.113281 30.570312 C 49.523438 30.570312 49.855469 30.902344 49.855469 31.3125 C 49.855469 31.71875 49.523438 32.050781 49.113281 32.050781 L 35.257812 32.050781 L 35.257812 33.546875 C 35.261719 33.953125 34.929688 34.285156 34.519531 34.285156 Z M 49.117188 15.996094 L 19.703125 15.996094 C 19.292969 15.996094 18.960938 15.664062 18.960938 15.253906 C 18.960938 14.847656 19.292969 14.515625 19.703125 14.515625 L 49.117188 14.515625 C 49.523438 14.515625 49.855469 14.847656 49.855469 15.253906 C 49.859375 15.664062 49.523438 15.996094 49.117188 15.996094 Z M 19.703125 46.625 L 34.410156 46.625 C 34.816406 46.625 35.148438 46.957031 35.148438 47.363281 C 35.148438 47.773438 34.816406 48.105469 34.410156 48.105469 L 19.703125 48.105469 C 19.292969 48.105469 18.960938 47.773438 18.960938 47.363281 C 18.960938 46.957031 19.292969 46.625 19.703125 46.625 Z M 25.75 40.078125 L 19.703125 40.078125 C 19.292969 40.078125 18.960938 39.746094 18.960938 39.339844 C 18.960938 38.929688 19.292969 38.597656 19.703125 38.597656 L 25.75 38.597656 C 26.15625 38.597656 26.488281 38.929688 26.488281 39.339844 C 26.488281 39.746094 26.15625 40.078125 25.75 40.078125 Z M 25.75 40.078125 " fill-opacity="1" fill-rule="evenodd"/></g><g clip-path="url(#b4e92033c9)"><path fill="#b4b4b4" d="M 28.320312 23.734375 L 28.320312 28.6875 L 31.488281 28.6875 C 31.898438 28.6875 32.230469 29.019531 32.230469 29.429688 C 32.230469 29.835938 31.898438 30.167969 31.488281 30.167969 L 27.578125 30.167969 C 27.171875 30.167969 26.839844 29.835938 26.839844 29.429688 L 26.839844 23.734375 C 26.839844 23.324219 27.171875 22.992188 27.578125 22.992188 C 27.988281 22.992188 28.320312 23.324219 28.320312 23.734375 Z M 26.214844 23.734375 L 26.214844 29.429688 C 26.214844 29.835938 25.882812 30.167969 25.472656 30.167969 C 25.066406 30.167969 24.734375 29.835938 24.734375 29.429688 L 24.734375 27.40625 L 23.765625 29.714844 C 23.648438 29.992188 23.378906 30.167969 23.082031 30.167969 C 22.785156 30.167969 22.515625 29.988281 22.398438 29.714844 L 21.429688 27.40625 L 21.429688 29.429688 C 21.429688 29.835938 21.097656 30.167969 20.6875 30.167969 C 20.277344 30.167969 19.949219 29.835938 19.949219 29.429688 L 19.949219 23.734375 C 19.949219 23.378906 20.195312 23.074219 20.542969 23.007812 C 20.886719 22.9375 21.234375 23.121094 21.371094 23.445312 L 23.082031 27.515625 L 24.792969 23.445312 C 24.929688 23.121094 25.277344 22.9375 25.621094 23.007812 C 25.964844 23.078125 26.214844 23.378906 26.214844 23.734375 Z M 33.78125 20.355469 L 5.871094 20.355469 L 5.871094 32.804688 L 33.78125 32.804688 Z M 16.929688 29.429688 C 16.929688 29.839844 16.597656 30.171875 16.1875 30.171875 C 15.78125 30.171875 15.449219 29.839844 15.449219 29.429688 L 15.449219 24.476562 L 13.792969 24.476562 C 13.386719 24.476562 13.054688 24.144531 13.054688 23.734375 C 13.054688 23.328125 13.386719 22.996094 13.792969 22.996094 L 18.582031 22.996094 C 18.992188 22.996094 19.324219 23.328125 19.324219 23.734375 C 19.324219 24.144531 18.992188 24.476562 18.582031 24.476562 L 16.929688 24.476562 Z M 12.429688 23.734375 L 12.429688 29.429688 C 12.429688 29.835938 12.097656 30.167969 11.6875 30.167969 C 11.28125 30.167969 10.949219 29.835938 10.949219 29.429688 L 10.949219 27.316406 L 8.902344 27.316406 L 8.902344 29.429688 C 8.902344 29.835938 8.570312 30.167969 8.160156 30.167969 C 7.75 30.167969 7.421875 29.835938 7.421875 29.429688 L 7.421875 23.734375 C 7.421875 23.324219 7.75 22.992188 8.160156 22.992188 C 8.570312 22.992188 8.902344 23.324219 8.902344 23.734375 L 8.902344 25.835938 L 10.949219 25.835938 L 10.949219 23.734375 C 10.949219 23.324219 11.28125 22.992188 11.6875 22.992188 C 12.097656 22.992188 12.429688 23.324219 12.429688 23.734375 Z M 12.429688 23.734375 " fill-opacity="1" fill-rule="evenodd"/></g><g clip-path="url(#2ff7e6e39e)"><path fill="#b4b4b4" d="M 33.957031 53.675781 L 6.046875 53.675781 L 6.046875 66.125 L 33.957031 66.125 Z M 24.476562 59.179688 C 25.769531 59.664062 27.371094 60.269531 27.371094 61.941406 C 27.371094 63.367188 25.964844 64.527344 24.242188 64.527344 C 22.515625 64.527344 21.113281 63.367188 21.113281 61.941406 C 21.113281 61.53125 21.441406 61.199219 21.851562 61.199219 C 22.261719 61.199219 22.59375 61.53125 22.59375 61.941406 C 22.59375 62.539062 23.347656 63.042969 24.242188 63.042969 C 25.136719 63.042969 25.890625 62.539062 25.890625 61.941406 C 25.890625 61.339844 25.160156 61.019531 23.953125 60.566406 C 22.6875 60.089844 21.109375 59.492188 21.109375 57.867188 C 21.109375 56.441406 22.515625 55.285156 24.242188 55.285156 C 25.96875 55.285156 27.371094 56.441406 27.371094 57.867188 C 27.371094 58.277344 27.039062 58.609375 26.632812 58.609375 C 26.222656 58.609375 25.890625 58.277344 25.890625 57.867188 C 25.890625 57.269531 25.136719 56.765625 24.242188 56.765625 C 23.347656 56.765625 22.59375 57.273438 22.59375 57.867188 C 22.59375 58.429688 23.308594 58.738281 24.476562 59.179688 Z M 19.046875 61.378906 C 19.046875 63.113281 17.609375 64.523438 15.839844 64.523438 C 14.070312 64.523438 12.628906 63.113281 12.628906 61.378906 C 12.628906 60.96875 12.960938 60.636719 13.371094 60.636719 C 13.78125 60.636719 14.109375 60.96875 14.109375 61.378906 C 14.109375 62.296875 14.886719 63.042969 15.839844 63.042969 C 16.792969 63.042969 17.566406 62.296875 17.566406 61.378906 L 17.566406 56.019531 C 17.566406 55.609375 17.898438 55.28125 18.308594 55.28125 C 18.714844 55.28125 19.046875 55.609375 19.046875 56.019531 Z M 19.046875 61.378906 " fill-opacity="1" fill-rule="evenodd"/></g><g clip-path="url(#5a786c9fc6)"><g transform="matrix(1, 0, 0, 1, 76, 5)"><g clip-path="url(#58fd830121)"><g fill="#b4b4b4" fill-opacity="1"><g transform="translate(0.931974, 24.226113)"><g><path d="M 6.015625 -15.78125 L 0.5 -15.78125 L 0.5 -17.53125 L 13.40625 -17.53125 L 13.40625 -15.78125 L 7.890625 -15.78125 L 7.890625 0 L 6.015625 0 Z M 6.015625 -15.78125 "/></g></g></g><g fill="#b4b4b4" fill-opacity="1"><g transform="translate(14.326007, 24.226113)"><g><path d="M 2.125 -17.53125 L 3.875 -17.53125 L 3.875 -10.265625 C 4.132812 -10.628906 4.453125 -10.960938 4.828125 -11.265625 C 5.160156 -11.515625 5.566406 -11.742188 6.046875 -11.953125 C 6.523438 -12.160156 7.097656 -12.265625 7.765625 -12.265625 C 8.484375 -12.265625 9.140625 -12.144531 9.734375 -11.90625 C 10.335938 -11.664062 10.851562 -11.320312 11.28125 -10.875 C 11.707031 -10.4375 12.039062 -9.898438 12.28125 -9.265625 C 12.53125 -8.628906 12.65625 -7.921875 12.65625 -7.140625 L 12.65625 0 L 10.890625 0 L 10.890625 -7.140625 C 10.890625 -8.203125 10.582031 -9.050781 9.96875 -9.6875 C 9.363281 -10.320312 8.585938 -10.640625 7.640625 -10.640625 C 7.109375 -10.640625 6.609375 -10.539062 6.140625 -10.34375 C 5.679688 -10.15625 5.285156 -9.882812 4.953125 -9.53125 C 4.617188 -9.1875 4.351562 -8.769531 4.15625 -8.28125 C 3.96875 -7.789062 3.875 -7.242188 3.875 -6.640625 L 3.875 0 L 2.125 0 Z M 2.125 -17.53125 "/></g></g></g><g fill="#b4b4b4" fill-opacity="1"><g transform="translate(28.971919, 24.226113)"><g><path d="M 2 -12.015625 L 3.75 -12.015625 L 3.75 0 L 2 0 Z M 2.875 -14.90625 C 2.5625 -14.90625 2.296875 -15.007812 2.078125 -15.21875 C 1.859375 -15.4375 1.75 -15.707031 1.75 -16.03125 C 1.75 -16.34375 1.859375 -16.609375 2.078125 -16.828125 C 2.296875 -17.046875 2.5625 -17.15625 2.875 -17.15625 C 3.195312 -17.15625 3.460938 -17.046875 3.671875 -16.828125 C 3.890625 -16.609375 4 -16.34375 4 -16.03125 C 4 -15.707031 3.890625 -15.4375 3.671875 -15.21875 C 3.460938 -15.007812 3.195312 -14.90625 2.875 -14.90625 Z M 2.875 -14.90625 "/></g></g></g><g fill="#b4b4b4" fill-opacity="1"><g transform="translate(34.730138, 24.226113)"><g><path d="M 5.265625 0.25 C 4.503906 0.25 3.847656 0.140625 3.296875 -0.078125 C 2.753906 -0.296875 2.296875 -0.535156 1.921875 -0.796875 C 1.492188 -1.097656 1.144531 -1.457031 0.875 -1.875 L 2.125 -3.125 C 2.363281 -2.789062 2.632812 -2.5 2.9375 -2.25 C 3.195312 -2.019531 3.523438 -1.816406 3.921875 -1.640625 C 4.316406 -1.460938 4.765625 -1.375 5.265625 -1.375 C 6.148438 -1.375 6.804688 -1.566406 7.234375 -1.953125 C 7.671875 -2.335938 7.890625 -2.8125 7.890625 -3.375 C 7.890625 -3.832031 7.722656 -4.191406 7.390625 -4.453125 C 7.066406 -4.722656 6.664062 -4.945312 6.1875 -5.125 C 5.71875 -5.300781 5.195312 -5.46875 4.625 -5.625 C 4.0625 -5.78125 3.539062 -5.984375 3.0625 -6.234375 C 2.59375 -6.484375 2.191406 -6.816406 1.859375 -7.234375 C 1.535156 -7.648438 1.375 -8.203125 1.375 -8.890625 C 1.375 -9.328125 1.46875 -9.75 1.65625 -10.15625 C 1.851562 -10.5625 2.125 -10.921875 2.46875 -11.234375 C 2.820312 -11.546875 3.242188 -11.796875 3.734375 -11.984375 C 4.234375 -12.171875 4.785156 -12.265625 5.390625 -12.265625 C 6.023438 -12.265625 6.578125 -12.175781 7.046875 -12 C 7.523438 -11.832031 7.929688 -11.648438 8.265625 -11.453125 C 8.648438 -11.210938 8.984375 -10.941406 9.265625 -10.640625 L 8.015625 -9.390625 C 7.828125 -9.628906 7.609375 -9.835938 7.359375 -10.015625 C 7.128906 -10.171875 6.847656 -10.3125 6.515625 -10.4375 C 6.191406 -10.570312 5.816406 -10.640625 5.390625 -10.640625 C 4.703125 -10.640625 4.148438 -10.457031 3.734375 -10.09375 C 3.328125 -9.726562 3.125 -9.328125 3.125 -8.890625 C 3.125 -8.453125 3.285156 -8.109375 3.609375 -7.859375 C 3.941406 -7.609375 4.34375 -7.398438 4.8125 -7.234375 C 5.289062 -7.066406 5.8125 -6.90625 6.375 -6.75 C 6.945312 -6.59375 7.472656 -6.382812 7.953125 -6.125 C 8.429688 -5.863281 8.832031 -5.515625 9.15625 -5.078125 C 9.476562 -4.648438 9.640625 -4.082031 9.640625 -3.375 C 9.640625 -2.875 9.539062 -2.398438 9.34375 -1.953125 C 9.144531 -1.515625 8.859375 -1.132812 8.484375 -0.8125 C 8.109375 -0.488281 7.644531 -0.226562 7.09375 -0.03125 C 6.550781 0.15625 5.941406 0.25 5.265625 0.25 Z M 5.265625 0.25 "/></g></g></g><g fill="#b4b4b4" fill-opacity="1"><g transform="translate(45.495511, 24.226113)"><g/></g></g><g fill="#b4b4b4" fill-opacity="1"><g transform="translate(50.001808, 24.226113)"><g><path d="M 0.75 -17.53125 L 2.75 -17.53125 L 7.390625 -2.875 L 12.140625 -17.53125 L 13.90625 -17.53125 L 18.65625 -2.875 L 23.296875 -17.53125 L 25.296875 -17.53125 L 19.53125 0 L 17.65625 0 L 13.03125 -14.65625 L 8.390625 0 L 6.515625 0 Z M 0.75 -17.53125 "/></g></g></g><g fill="#b4b4b4" fill-opacity="1"><g transform="translate(74.786965, 24.226113)"><g><path d="M 7.140625 0.25 C 6.316406 0.25 5.539062 0.0859375 4.8125 -0.234375 C 4.09375 -0.554688 3.457031 -1 2.90625 -1.5625 C 2.351562 -2.125 1.914062 -2.785156 1.59375 -3.546875 C 1.28125 -4.304688 1.125 -5.128906 1.125 -6.015625 C 1.125 -6.878906 1.28125 -7.695312 1.59375 -8.46875 C 1.914062 -9.238281 2.347656 -9.898438 2.890625 -10.453125 C 3.429688 -11.015625 4.054688 -11.457031 4.765625 -11.78125 C 5.472656 -12.101562 6.222656 -12.265625 7.015625 -12.265625 C 7.828125 -12.265625 8.582031 -12.113281 9.28125 -11.8125 C 9.988281 -11.519531 10.597656 -11.109375 11.109375 -10.578125 C 11.628906 -10.054688 12.035156 -9.421875 12.328125 -8.671875 C 12.628906 -7.929688 12.78125 -7.128906 12.78125 -6.265625 C 12.78125 -6.128906 12.769531 -6.003906 12.75 -5.890625 C 12.726562 -5.785156 12.710938 -5.691406 12.703125 -5.609375 C 12.679688 -5.503906 12.664062 -5.421875 12.65625 -5.359375 L 2.875 -5.390625 C 2.914062 -4.847656 3.050781 -4.332031 3.28125 -3.84375 C 3.507812 -3.363281 3.816406 -2.941406 4.203125 -2.578125 C 4.585938 -2.210938 5.03125 -1.921875 5.53125 -1.703125 C 6.03125 -1.484375 6.566406 -1.375 7.140625 -1.375 C 7.773438 -1.375 8.328125 -1.476562 8.796875 -1.6875 C 9.273438 -1.894531 9.679688 -2.125 10.015625 -2.375 C 10.398438 -2.675781 10.734375 -3.007812 11.015625 -3.375 L 12.140625 -2.25 C 11.796875 -1.78125 11.375 -1.363281 10.875 -1 C 10.4375 -0.6875 9.90625 -0.398438 9.28125 -0.140625 C 8.664062 0.117188 7.953125 0.25 7.140625 0.25 Z M 11.015625 -6.890625 C 10.953125 -7.421875 10.804688 -7.914062 10.578125 -8.375 C 10.359375 -8.832031 10.070312 -9.226562 9.71875 -9.5625 C 9.363281 -9.894531 8.957031 -10.15625 8.5 -10.34375 C 8.039062 -10.539062 7.546875 -10.640625 7.015625 -10.640625 C 6.484375 -10.640625 5.976562 -10.539062 5.5 -10.34375 C 5.019531 -10.144531 4.597656 -9.867188 4.234375 -9.515625 C 3.867188 -9.160156 3.566406 -8.757812 3.328125 -8.3125 C 3.097656 -7.863281 2.945312 -7.390625 2.875 -6.890625 Z M 11.015625 -6.890625 "/></g></g></g><g fill="#b4b4b4" fill-opacity="1"><g transform="translate(88.681803, 24.226113)"><g><path d="M 8.015625 0.25 C 7.316406 0.25 6.707031 0.144531 6.1875 -0.0625 C 5.664062 -0.269531 5.238281 -0.5 4.90625 -0.75 C 4.488281 -1.050781 4.144531 -1.382812 3.875 -1.75 L 3.875 0 L 2.125 0 L 2.125 -17.53125 L 3.875 -17.53125 L 3.875 -10.265625 C 4.144531 -10.628906 4.488281 -10.960938 4.90625 -11.265625 C 5.238281 -11.515625 5.664062 -11.742188 6.1875 -11.953125 C 6.707031 -12.160156 7.316406 -12.265625 8.015625 -12.265625 C 8.835938 -12.265625 9.601562 -12.109375 10.3125 -11.796875 C 11.019531 -11.492188 11.640625 -11.0625 12.171875 -10.5 C 12.703125 -9.945312 13.125 -9.285156 13.4375 -8.515625 C 13.75 -7.742188 13.90625 -6.910156 13.90625 -6.015625 C 13.90625 -5.109375 13.75 -4.269531 13.4375 -3.5 C 13.125 -2.738281 12.703125 -2.078125 12.171875 -1.515625 C 11.640625 -0.953125 11.019531 -0.515625 10.3125 -0.203125 C 9.601562 0.0976562 8.835938 0.25 8.015625 0.25 Z M 8.015625 -1.375 C 8.578125 -1.375 9.109375 -1.484375 9.609375 -1.703125 C 10.117188 -1.929688 10.5625 -2.25 10.9375 -2.65625 C 11.3125 -3.070312 11.601562 -3.5625 11.8125 -4.125 C 12.03125 -4.695312 12.140625 -5.328125 12.140625 -6.015625 C 12.140625 -6.691406 12.03125 -7.3125 11.8125 -7.875 C 11.601562 -8.445312 11.3125 -8.9375 10.9375 -9.34375 C 10.5625 -9.757812 10.117188 -10.078125 9.609375 -10.296875 C 9.109375 -10.523438 8.578125 -10.640625 8.015625 -10.640625 C 7.484375 -10.640625 6.96875 -10.519531 6.46875 -10.28125 C 5.976562 -10.050781 5.539062 -9.726562 5.15625 -9.3125 C 4.769531 -8.894531 4.457031 -8.398438 4.21875 -7.828125 C 3.988281 -7.265625 3.875 -6.660156 3.875 -6.015625 C 3.875 -5.359375 3.988281 -4.742188 4.21875 -4.171875 C 4.457031 -3.609375 4.769531 -3.117188 5.15625 -2.703125 C 5.539062 -2.285156 5.976562 -1.957031 6.46875 -1.71875 C 6.96875 -1.488281 7.484375 -1.375 8.015625 -1.375 Z M 8.015625 -1.375 "/></g></g></g><g fill="#b4b4b4" fill-opacity="1"><g transform="translate(103.703255, 24.226113)"><g><path d="M 5.265625 0.25 C 4.503906 0.25 3.847656 0.140625 3.296875 -0.078125 C 2.753906 -0.296875 2.296875 -0.535156 1.921875 -0.796875 C 1.492188 -1.097656 1.144531 -1.457031 0.875 -1.875 L 2.125 -3.125 C 2.363281 -2.789062 2.632812 -2.5 2.9375 -2.25 C 3.195312 -2.019531 3.523438 -1.816406 3.921875 -1.640625 C 4.316406 -1.460938 4.765625 -1.375 5.265625 -1.375 C 6.148438 -1.375 6.804688 -1.566406 7.234375 -1.953125 C 7.671875 -2.335938 7.890625 -2.8125 7.890625 -3.375 C 7.890625 -3.832031 7.722656 -4.191406 7.390625 -4.453125 C 7.066406 -4.722656 6.664062 -4.945312 6.1875 -5.125 C 5.71875 -5.300781 5.195312 -5.46875 4.625 -5.625 C 4.0625 -5.78125 3.539062 -5.984375 3.0625 -6.234375 C 2.59375 -6.484375 2.191406 -6.816406 1.859375 -7.234375 C 1.535156 -7.648438 1.375 -8.203125 1.375 -8.890625 C 1.375 -9.328125 1.46875 -9.75 1.65625 -10.15625 C 1.851562 -10.5625 2.125 -10.921875 2.46875 -11.234375 C 2.820312 -11.546875 3.242188 -11.796875 3.734375 -11.984375 C 4.234375 -12.171875 4.785156 -12.265625 5.390625 -12.265625 C 6.023438 -12.265625 6.578125 -12.175781 7.046875 -12 C 7.523438 -11.832031 7.929688 -11.648438 8.265625 -11.453125 C 8.648438 -11.210938 8.984375 -10.941406 9.265625 -10.640625 L 8.015625 -9.390625 C 7.828125 -9.628906 7.609375 -9.835938 7.359375 -10.015625 C 7.128906 -10.171875 6.847656 -10.3125 6.515625 -10.4375 C 6.191406 -10.570312 5.816406 -10.640625 5.390625 -10.640625 C 4.703125 -10.640625 4.148438 -10.457031 3.734375 -10.09375 C 3.328125 -9.726562 3.125 -9.328125 3.125 -8.890625 C 3.125 -8.453125 3.285156 -8.109375 3.609375 -7.859375 C 3.941406 -7.609375 4.34375 -7.398438 4.8125 -7.234375 C 5.289062 -7.066406 5.8125 -6.90625 6.375 -6.75 C 6.945312 -6.59375 7.472656 -6.382812 7.953125 -6.125 C 8.429688 -5.863281 8.832031 -5.515625 9.15625 -5.078125 C 9.476562 -4.648438 9.640625 -4.082031 9.640625 -3.375 C 9.640625 -2.875 9.539062 -2.398438 9.34375 -1.953125 C 9.144531 -1.515625 8.859375 -1.132812 8.484375 -0.8125 C 8.109375 -0.488281 7.644531 -0.226562 7.09375 -0.03125 C 6.550781 0.15625 5.941406 0.25 5.265625 0.25 Z M 5.265625 0.25 "/></g></g></g><g fill="#b4b4b4" fill-opacity="1"><g transform="translate(114.468628, 24.226113)"><g><path d="M 2 -12.015625 L 3.75 -12.015625 L 3.75 0 L 2 0 Z M 2.875 -14.90625 C 2.5625 -14.90625 2.296875 -15.007812 2.078125 -15.21875 C 1.859375 -15.4375 1.75 -15.707031 1.75 -16.03125 C 1.75 -16.34375 1.859375 -16.609375 2.078125 -16.828125 C 2.296875 -17.046875 2.5625 -17.15625 2.875 -17.15625 C 3.195312 -17.15625 3.460938 -17.046875 3.671875 -16.828125 C 3.890625 -16.609375 4 -16.34375 4 -16.03125 C 4 -15.707031 3.890625 -15.4375 3.671875 -15.21875 C 3.460938 -15.007812 3.195312 -14.90625 2.875 -14.90625 Z M 2.875 -14.90625 "/></g></g></g><g fill="#b4b4b4" fill-opacity="1"><g transform="translate(120.22684, 24.226113)"><g><path d="M 6.3125 0.25 C 5.28125 0.25 4.46875 -0.046875 3.875 -0.640625 C 3.289062 -1.242188 3 -2.113281 3 -3.25 L 3 -10.390625 L 0.75 -10.390625 L 0.75 -12.015625 L 2.125 -12.015625 C 2.789062 -12.015625 3.125 -12.4375 3.125 -13.28125 L 3.125 -16.03125 L 4.765625 -16.03125 L 4.765625 -12.015625 L 7.390625 -12.015625 L 7.390625 -10.390625 L 4.765625 -10.390625 L 4.765625 -3.25 C 4.765625 -2.613281 4.910156 -2.140625 5.203125 -1.828125 C 5.492188 -1.523438 5.890625 -1.375 6.390625 -1.375 C 6.609375 -1.375 6.816406 -1.390625 7.015625 -1.421875 C 7.210938 -1.460938 7.390625 -1.503906 7.546875 -1.546875 C 7.722656 -1.617188 7.878906 -1.6875 8.015625 -1.75 L 8.015625 -0.125 C 7.867188 -0.0625 7.703125 0.00390625 7.515625 0.078125 C 7.359375 0.128906 7.175781 0.171875 6.96875 0.203125 C 6.757812 0.234375 6.539062 0.25 6.3125 0.25 Z M 6.3125 0.25 "/></g></g></g><g fill="#b4b4b4" fill-opacity="1"><g transform="translate(128.989317, 24.226113)"><g><path d="M 7.140625 0.25 C 6.316406 0.25 5.539062 0.0859375 4.8125 -0.234375 C 4.09375 -0.554688 3.457031 -1 2.90625 -1.5625 C 2.351562 -2.125 1.914062 -2.785156 1.59375 -3.546875 C 1.28125 -4.304688 1.125 -5.128906 1.125 -6.015625 C 1.125 -6.878906 1.28125 -7.695312 1.59375 -8.46875 C 1.914062 -9.238281 2.347656 -9.898438 2.890625 -10.453125 C 3.429688 -11.015625 4.054688 -11.457031 4.765625 -11.78125 C 5.472656 -12.101562 6.222656 -12.265625 7.015625 -12.265625 C 7.828125 -12.265625 8.582031 -12.113281 9.28125 -11.8125 C 9.988281 -11.519531 10.597656 -11.109375 11.109375 -10.578125 C 11.628906 -10.054688 12.035156 -9.421875 12.328125 -8.671875 C 12.628906 -7.929688 12.78125 -7.128906 12.78125 -6.265625 C 12.78125 -6.128906 12.769531 -6.003906 12.75 -5.890625 C 12.726562 -5.785156 12.710938 -5.691406 12.703125 -5.609375 C 12.679688 -5.503906 12.664062 -5.421875 12.65625 -5.359375 L 2.875 -5.390625 C 2.914062 -4.847656 3.050781 -4.332031 3.28125 -3.84375 C 3.507812 -3.363281 3.816406 -2.941406 4.203125 -2.578125 C 4.585938 -2.210938 5.03125 -1.921875 5.53125 -1.703125 C 6.03125 -1.484375 6.566406 -1.375 7.140625 -1.375 C 7.773438 -1.375 8.328125 -1.476562 8.796875 -1.6875 C 9.273438 -1.894531 9.679688 -2.125 10.015625 -2.375 C 10.398438 -2.675781 10.734375 -3.007812 11.015625 -3.375 L 12.140625 -2.25 C 11.796875 -1.78125 11.375 -1.363281 10.875 -1 C 10.4375 -0.6875 9.90625 -0.398438 9.28125 -0.140625 C 8.664062 0.117188 7.953125 0.25 7.140625 0.25 Z M 11.015625 -6.890625 C 10.953125 -7.421875 10.804688 -7.914062 10.578125 -8.375 C 10.359375 -8.832031 10.070312 -9.226562 9.71875 -9.5625 C 9.363281 -9.894531 8.957031 -10.15625 8.5 -10.34375 C 8.039062 -10.539062 7.546875 -10.640625 7.015625 -10.640625 C 6.484375 -10.640625 5.976562 -10.539062 5.5 -10.34375 C 5.019531 -10.144531 4.597656 -9.867188 4.234375 -9.515625 C 3.867188 -9.160156 3.566406 -8.757812 3.328125 -8.3125 C 3.097656 -7.863281 2.945312 -7.390625 2.875 -6.890625 Z M 11.015625 -6.890625 "/></g></g></g><g fill="#b4b4b4" fill-opacity="1"><g transform="translate(142.884155, 24.226113)"><g/></g></g><g fill="#b4b4b4" fill-opacity="1"><g transform="translate(148.141661, 24.226113)"><g><path d="M 2 -12.015625 L 3.75 -12.015625 L 3.75 0 L 2 0 Z M 2.875 -14.90625 C 2.5625 -14.90625 2.296875 -15.007812 2.078125 -15.21875 C 1.859375 -15.4375 1.75 -15.707031 1.75 -16.03125 C 1.75 -16.34375 1.859375 -16.609375 2.078125 -16.828125 C 2.296875 -17.046875 2.5625 -17.15625 2.875 -17.15625 C 3.195312 -17.15625 3.460938 -17.046875 3.671875 -16.828125 C 3.890625 -16.609375 4 -16.34375 4 -16.03125 C 4 -15.707031 3.890625 -15.4375 3.671875 -15.21875 C 3.460938 -15.007812 3.195312 -14.90625 2.875 -14.90625 Z M 2.875 -14.90625 "/></g></g></g><g fill="#b4b4b4" fill-opacity="1"><g transform="translate(153.899874, 24.226113)"><g><path d="M 5.265625 0.25 C 4.503906 0.25 3.847656 0.140625 3.296875 -0.078125 C 2.753906 -0.296875 2.296875 -0.535156 1.921875 -0.796875 C 1.492188 -1.097656 1.144531 -1.457031 0.875 -1.875 L 2.125 -3.125 C 2.363281 -2.789062 2.632812 -2.5 2.9375 -2.25 C 3.195312 -2.019531 3.523438 -1.816406 3.921875 -1.640625 C 4.316406 -1.460938 4.765625 -1.375 5.265625 -1.375 C 6.148438 -1.375 6.804688 -1.566406 7.234375 -1.953125 C 7.671875 -2.335938 7.890625 -2.8125 7.890625 -3.375 C 7.890625 -3.832031 7.722656 -4.191406 7.390625 -4.453125 C 7.066406 -4.722656 6.664062 -4.945312 6.1875 -5.125 C 5.71875 -5.300781 5.195312 -5.46875 4.625 -5.625 C 4.0625 -5.78125 3.539062 -5.984375 3.0625 -6.234375 C 2.59375 -6.484375 2.191406 -6.816406 1.859375 -7.234375 C 1.535156 -7.648438 1.375 -8.203125 1.375 -8.890625 C 1.375 -9.328125 1.46875 -9.75 1.65625 -10.15625 C 1.851562 -10.5625 2.125 -10.921875 2.46875 -11.234375 C 2.820312 -11.546875 3.242188 -11.796875 3.734375 -11.984375 C 4.234375 -12.171875 4.785156 -12.265625 5.390625 -12.265625 C 6.023438 -12.265625 6.578125 -12.175781 7.046875 -12 C 7.523438 -11.832031 7.929688 -11.648438 8.265625 -11.453125 C 8.648438 -11.210938 8.984375 -10.941406 9.265625 -10.640625 L 8.015625 -9.390625 C 7.828125 -9.628906 7.609375 -9.835938 7.359375 -10.015625 C 7.128906 -10.171875 6.847656 -10.3125 6.515625 -10.4375 C 6.191406 -10.570312 5.816406 -10.640625 5.390625 -10.640625 C 4.703125 -10.640625 4.148438 -10.457031 3.734375 -10.09375 C 3.328125 -9.726562 3.125 -9.328125 3.125 -8.890625 C 3.125 -8.453125 3.285156 -8.109375 3.609375 -7.859375 C 3.941406 -7.609375 4.34375 -7.398438 4.8125 -7.234375 C 5.289062 -7.066406 5.8125 -6.90625 6.375 -6.75 C 6.945312 -6.59375 7.472656 -6.382812 7.953125 -6.125 C 8.429688 -5.863281 8.832031 -5.515625 9.15625 -5.078125 C 9.476562 -4.648438 9.640625 -4.082031 9.640625 -3.375 C 9.640625 -2.875 9.539062 -2.398438 9.34375 -1.953125 C 9.144531 -1.515625 8.859375 -1.132812 8.484375 -0.8125 C 8.109375 -0.488281 7.644531 -0.226562 7.09375 -0.03125 C 6.550781 0.15625 5.941406 0.25 5.265625 0.25 Z M 5.265625 0.25 "/></g></g></g><g fill="#b4b4b4" fill-opacity="1"><g transform="translate(164.66526, 24.226113)"><g/></g></g><g fill="#b4b4b4" fill-opacity="1"><g transform="translate(169.922752, 24.226113)"><g><path d="M 2.625 0.25 C 2.238281 0.25 1.929688 0.140625 1.703125 -0.078125 C 1.484375 -0.304688 1.375 -0.613281 1.375 -1 C 1.375 -1.382812 1.484375 -1.6875 1.703125 -1.90625 C 1.929688 -2.132812 2.238281 -2.25 2.625 -2.25 C 3.007812 -2.25 3.3125 -2.132812 3.53125 -1.90625 C 3.757812 -1.6875 3.875 -1.382812 3.875 -1 C 3.875 -0.613281 3.757812 -0.304688 3.53125 -0.078125 C 3.3125 0.140625 3.007812 0.25 2.625 0.25 Z M 2.625 0.25 "/></g></g></g><g fill="#b4b4b4" fill-opacity="1"><g transform="translate(175.180272, 24.226113)"><g/></g></g><g fill="#b4b4b4" fill-opacity="1"><g transform="translate(180.437764, 24.226113)"><g><path d="M 2.625 0.25 C 2.238281 0.25 1.929688 0.140625 1.703125 -0.078125 C 1.484375 -0.304688 1.375 -0.613281 1.375 -1 C 1.375 -1.382812 1.484375 -1.6875 1.703125 -1.90625 C 1.929688 -2.132812 2.238281 -2.25 2.625 -2.25 C 3.007812 -2.25 3.3125 -2.132812 3.53125 -1.90625 C 3.757812 -1.6875 3.875 -1.382812 3.875 -1 C 3.875 -0.613281 3.757812 -0.304688 3.53125 -0.078125 C 3.3125 0.140625 3.007812 0.25 2.625 0.25 Z M 2.625 0.25 "/></g></g></g><g fill="#b4b4b4" fill-opacity="1"><g transform="translate(185.695285, 24.226113)"><g/></g></g><g fill="#b4b4b4" fill-opacity="1"><g transform="translate(190.952776, 24.226113)"><g><path d="M 2.625 0.25 C 2.238281 0.25 1.929688 0.140625 1.703125 -0.078125 C 1.484375 -0.304688 1.375 -0.613281 1.375 -1 C 1.375 -1.382812 1.484375 -1.6875 1.703125 -1.90625 C 1.929688 -2.132812 2.238281 -2.25 2.625 -2.25 C 3.007812 -2.25 3.3125 -2.132812 3.53125 -1.90625 C 3.757812 -1.6875 3.875 -1.382812 3.875 -1 C 3.875 -0.613281 3.757812 -0.304688 3.53125 -0.078125 C 3.3125 0.140625 3.007812 0.25 2.625 0.25 Z M 2.625 0.25 "/></g></g></g><g fill="#b4b4b4" fill-opacity="1"><g transform="translate(196.210297, 24.226113)"><g/></g></g><g fill="#b4b4b4" fill-opacity="1"><g transform="translate(201.467789, 24.226113)"><g><path d="M 2.625 0.25 C 2.238281 0.25 1.929688 0.140625 1.703125 -0.078125 C 1.484375 -0.304688 1.375 -0.613281 1.375 -1 C 1.375 -1.382812 1.484375 -1.6875 1.703125 -1.90625 C 1.929688 -2.132812 2.238281 -2.25 2.625 -2.25 C 3.007812 -2.25 3.3125 -2.132812 3.53125 -1.90625 C 3.757812 -1.6875 3.875 -1.382812 3.875 -1 C 3.875 -0.613281 3.757812 -0.304688 3.53125 -0.078125 C 3.3125 0.140625 3.007812 0.25 2.625 0.25 Z M 2.625 0.25 "/></g></g></g><g fill="#b4b4b4" fill-opacity="1"><g transform="translate(206.725309, 24.226113)"><g/></g></g><g fill="#b4b4b4" fill-opacity="1"><g transform="translate(211.982801, 24.226113)"><g><path d="M 2.625 0.25 C 2.238281 0.25 1.929688 0.140625 1.703125 -0.078125 C 1.484375 -0.304688 1.375 -0.613281 1.375 -1 C 1.375 -1.382812 1.484375 -1.6875 1.703125 -1.90625 C 1.929688 -2.132812 2.238281 -2.25 2.625 -2.25 C 3.007812 -2.25 3.3125 -2.132812 3.53125 -1.90625 C 3.757812 -1.6875 3.875 -1.382812 3.875 -1 C 3.875 -0.613281 3.757812 -0.304688 3.53125 -0.078125 C 3.3125 0.140625 3.007812 0.25 2.625 0.25 Z M 2.625 0.25 "/></g></g></g><g fill="#b4b4b4" fill-opacity="1"><g transform="translate(0.931974, 59.15969)"><g><path d="M 9.515625 0.25 C 8.515625 0.25 7.578125 0.0664062 6.703125 -0.296875 C 5.835938 -0.671875 5.082031 -1.175781 4.4375 -1.8125 C 3.800781 -2.457031 3.296875 -3.210938 2.921875 -4.078125 C 2.554688 -4.953125 2.375 -5.890625 2.375 -6.890625 L 2.375 -17.53125 L 4.265625 -17.53125 L 4.265625 -6.890625 C 4.265625 -6.097656 4.394531 -5.375 4.65625 -4.71875 C 4.925781 -4.0625 5.296875 -3.492188 5.765625 -3.015625 C 6.234375 -2.535156 6.785156 -2.160156 7.421875 -1.890625 C 8.066406 -1.628906 8.765625 -1.5 9.515625 -1.5 C 10.265625 -1.5 10.960938 -1.628906 11.609375 -1.890625 C 12.253906 -2.160156 12.804688 -2.535156 13.265625 -3.015625 C 13.734375 -3.492188 14.101562 -4.0625 14.375 -4.71875 C 14.644531 -5.375 14.78125 -6.097656 14.78125 -6.890625 L 14.78125 -17.53125 L 16.65625 -17.53125 L 16.65625 -6.890625 C 16.65625 -5.890625 16.46875 -4.953125 16.09375 -4.078125 C 15.726562 -3.210938 15.222656 -2.457031 14.578125 -1.8125 C 13.941406 -1.175781 13.1875 -0.671875 12.3125 -0.296875 C 11.445312 0.0664062 10.515625 0.25 9.515625 0.25 Z M 9.515625 0.25 "/></g></g></g><g fill="#b4b4b4" fill-opacity="1"><g transform="translate(19.959146, 59.15969)"><g><path d="M 2 -12.015625 L 3.75 -12.015625 L 3.75 -10.265625 C 4 -10.628906 4.316406 -10.960938 4.703125 -11.265625 C 5.035156 -11.515625 5.441406 -11.742188 5.921875 -11.953125 C 6.398438 -12.160156 6.972656 -12.265625 7.640625 -12.265625 C 8.359375 -12.265625 9.015625 -12.144531 9.609375 -11.90625 C 10.210938 -11.664062 10.726562 -11.320312 11.15625 -10.875 C 11.582031 -10.4375 11.914062 -9.898438 12.15625 -9.265625 C 12.394531 -8.628906 12.515625 -7.921875 12.515625 -7.140625 L 12.515625 0 L 10.765625 0 L 10.765625 -7.140625 C 10.765625 -8.203125 10.457031 -9.050781 9.84375 -9.6875 C 9.238281 -10.320312 8.460938 -10.640625 7.515625 -10.640625 C 6.984375 -10.640625 6.484375 -10.539062 6.015625 -10.34375 C 5.554688 -10.15625 5.160156 -9.882812 4.828125 -9.53125 C 4.492188 -9.1875 4.226562 -8.769531 4.03125 -8.28125 C 3.84375 -7.789062 3.75 -7.242188 3.75 -6.640625 L 3.75 0 L 2 0 Z M 2 -12.015625 "/></g></g></g><g fill="#b4b4b4" fill-opacity="1"><g transform="translate(34.479878, 59.15969)"><g><path d="M 7.015625 0.25 C 6.191406 0.25 5.425781 0.0976562 4.71875 -0.203125 C 4.007812 -0.515625 3.382812 -0.953125 2.84375 -1.515625 C 2.3125 -2.078125 1.890625 -2.738281 1.578125 -3.5 C 1.273438 -4.269531 1.125 -5.109375 1.125 -6.015625 C 1.125 -6.910156 1.273438 -7.742188 1.578125 -8.515625 C 1.890625 -9.285156 2.3125 -9.945312 2.84375 -10.5 C 3.382812 -11.0625 4.007812 -11.492188 4.71875 -11.796875 C 5.425781 -12.109375 6.191406 -12.265625 7.015625 -12.265625 C 7.710938 -12.265625 8.316406 -12.160156 8.828125 -11.953125 C 9.335938 -11.742188 9.769531 -11.515625 10.125 -11.265625 C 10.519531 -10.960938 10.859375 -10.628906 11.140625 -10.265625 L 11.140625 -17.53125 L 12.90625 -17.53125 L 12.90625 0 L 11.140625 0 L 11.140625 -1.75 C 10.859375 -1.382812 10.519531 -1.050781 10.125 -0.75 C 9.769531 -0.5 9.335938 -0.269531 8.828125 -0.0625 C 8.316406 0.144531 7.710938 0.25 7.015625 0.25 Z M 7.015625 -1.375 C 7.546875 -1.375 8.054688 -1.488281 8.546875 -1.71875 C 9.046875 -1.957031 9.484375 -2.285156 9.859375 -2.703125 C 10.242188 -3.117188 10.550781 -3.609375 10.78125 -4.171875 C 11.019531 -4.742188 11.140625 -5.359375 11.140625 -6.015625 C 11.140625 -6.660156 11.019531 -7.265625 10.78125 -7.828125 C 10.550781 -8.398438 10.242188 -8.894531 9.859375 -9.3125 C 9.484375 -9.726562 9.046875 -10.050781 8.546875 -10.28125 C 8.054688 -10.519531 7.546875 -10.640625 7.015625 -10.640625 C 6.441406 -10.640625 5.90625 -10.523438 5.40625 -10.296875 C 4.90625 -10.078125 4.46875 -9.757812 4.09375 -9.34375 C 3.71875 -8.9375 3.421875 -8.445312 3.203125 -7.875 C 2.984375 -7.3125 2.875 -6.691406 2.875 -6.015625 C 2.875 -5.328125 2.984375 -4.695312 3.203125 -4.125 C 3.421875 -3.5625 3.71875 -3.070312 4.09375 -2.65625 C 4.46875 -2.25 4.90625 -1.929688 5.40625 -1.703125 C 5.90625 -1.484375 6.441406 -1.375 7.015625 -1.375 Z M 7.015625 -1.375 "/></g></g></g><g fill="#b4b4b4" fill-opacity="1"><g transform="translate(49.50133, 59.15969)"><g><path d="M 7.140625 0.25 C 6.316406 0.25 5.539062 0.0859375 4.8125 -0.234375 C 4.09375 -0.554688 3.457031 -1 2.90625 -1.5625 C 2.351562 -2.125 1.914062 -2.785156 1.59375 -3.546875 C 1.28125 -4.304688 1.125 -5.128906 1.125 -6.015625 C 1.125 -6.878906 1.28125 -7.695312 1.59375 -8.46875 C 1.914062 -9.238281 2.347656 -9.898438 2.890625 -10.453125 C 3.429688 -11.015625 4.054688 -11.457031 4.765625 -11.78125 C 5.472656 -12.101562 6.222656 -12.265625 7.015625 -12.265625 C 7.828125 -12.265625 8.582031 -12.113281 9.28125 -11.8125 C 9.988281 -11.519531 10.597656 -11.109375 11.109375 -10.578125 C 11.628906 -10.054688 12.035156 -9.421875 12.328125 -8.671875 C 12.628906 -7.929688 12.78125 -7.128906 12.78125 -6.265625 C 12.78125 -6.128906 12.769531 -6.003906 12.75 -5.890625 C 12.726562 -5.785156 12.710938 -5.691406 12.703125 -5.609375 C 12.679688 -5.503906 12.664062 -5.421875 12.65625 -5.359375 L 2.875 -5.390625 C 2.914062 -4.847656 3.050781 -4.332031 3.28125 -3.84375 C 3.507812 -3.363281 3.816406 -2.941406 4.203125 -2.578125 C 4.585938 -2.210938 5.03125 -1.921875 5.53125 -1.703125 C 6.03125 -1.484375 6.566406 -1.375 7.140625 -1.375 C 7.773438 -1.375 8.328125 -1.476562 8.796875 -1.6875 C 9.273438 -1.894531 9.679688 -2.125 10.015625 -2.375 C 10.398438 -2.675781 10.734375 -3.007812 11.015625 -3.375 L 12.140625 -2.25 C 11.796875 -1.78125 11.375 -1.363281 10.875 -1 C 10.4375 -0.6875 9.90625 -0.398438 9.28125 -0.140625 C 8.664062 0.117188 7.953125 0.25 7.140625 0.25 Z M 11.015625 -6.890625 C 10.953125 -7.421875 10.804688 -7.914062 10.578125 -8.375 C 10.359375 -8.832031 10.070312 -9.226562 9.71875 -9.5625 C 9.363281 -9.894531 8.957031 -10.15625 8.5 -10.34375 C 8.039062 -10.539062 7.546875 -10.640625 7.015625 -10.640625 C 6.484375 -10.640625 5.976562 -10.539062 5.5 -10.34375 C 5.019531 -10.144531 4.597656 -9.867188 4.234375 -9.515625 C 3.867188 -9.160156 3.566406 -8.757812 3.328125 -8.3125 C 3.097656 -7.863281 2.945312 -7.390625 2.875 -6.890625 Z M 11.015625 -6.890625 "/></g></g></g><g fill="#b4b4b4" fill-opacity="1"><g transform="translate(63.396169, 59.15969)"><g><path d="M 2 -12.015625 L 3.75 -12.015625 L 3.75 -10.390625 C 4.019531 -10.722656 4.347656 -11.035156 4.734375 -11.328125 C 5.066406 -11.554688 5.476562 -11.769531 5.96875 -11.96875 C 6.46875 -12.164062 7.066406 -12.265625 7.765625 -12.265625 L 8.265625 -12.265625 L 8.265625 -10.515625 L 7.515625 -10.515625 C 7.015625 -10.515625 6.535156 -10.421875 6.078125 -10.234375 C 5.628906 -10.054688 5.226562 -9.800781 4.875 -9.46875 C 4.53125 -9.132812 4.253906 -8.726562 4.046875 -8.25 C 3.847656 -7.78125 3.75 -7.242188 3.75 -6.640625 L 3.75 0 L 2 0 Z M 2 -12.015625 "/></g></g></g><g fill="#b4b4b4" fill-opacity="1"><g transform="translate(71.532696, 59.15969)"><g/></g></g><g fill="#b4b4b4" fill-opacity="1"><g transform="translate(76.790202, 59.15969)"><g><path d="M 10.515625 0.25 C 9.265625 0.25 8.09375 0.015625 7 -0.453125 C 5.90625 -0.921875 4.945312 -1.5625 4.125 -2.375 C 3.3125 -3.195312 2.671875 -4.15625 2.203125 -5.25 C 1.734375 -6.34375 1.5 -7.515625 1.5 -8.765625 C 1.5 -10.015625 1.734375 -11.1875 2.203125 -12.28125 C 2.671875 -13.375 3.3125 -14.328125 4.125 -15.140625 C 4.945312 -15.960938 5.90625 -16.609375 7 -17.078125 C 8.09375 -17.546875 9.265625 -17.78125 10.515625 -17.78125 C 11.722656 -17.78125 12.769531 -17.585938 13.65625 -17.203125 C 14.539062 -16.816406 15.28125 -16.398438 15.875 -15.953125 C 16.5625 -15.421875 17.15625 -14.820312 17.65625 -14.15625 L 16.40625 -13.03125 C 16 -13.59375 15.515625 -14.09375 14.953125 -14.53125 C 14.472656 -14.914062 13.863281 -15.257812 13.125 -15.5625 C 12.382812 -15.875 11.515625 -16.03125 10.515625 -16.03125 C 9.515625 -16.03125 8.578125 -15.84375 7.703125 -15.46875 C 6.835938 -15.101562 6.082031 -14.59375 5.4375 -13.9375 C 4.800781 -13.289062 4.296875 -12.523438 3.921875 -11.640625 C 3.554688 -10.753906 3.375 -9.796875 3.375 -8.765625 C 3.375 -7.734375 3.554688 -6.773438 3.921875 -5.890625 C 4.296875 -5.003906 4.800781 -4.234375 5.4375 -3.578125 C 6.082031 -2.929688 6.835938 -2.421875 7.703125 -2.046875 C 8.578125 -1.679688 9.515625 -1.5 10.515625 -1.5 C 11.515625 -1.5 12.390625 -1.648438 13.140625 -1.953125 C 13.898438 -2.265625 14.53125 -2.613281 15.03125 -3 C 15.613281 -3.4375 16.113281 -3.941406 16.53125 -4.515625 L 17.78125 -3.375 C 17.257812 -2.695312 16.644531 -2.085938 15.9375 -1.546875 C 15.3125 -1.097656 14.550781 -0.6875 13.65625 -0.3125 C 12.769531 0.0625 11.722656 0.25 10.515625 0.25 Z M 10.515625 0.25 "/></g></g></g><g fill="#b4b4b4" fill-opacity="1"><g transform="translate(95.316611, 59.15969)"><g><path d="M 7.265625 0.25 C 6.410156 0.25 5.609375 0.0859375 4.859375 -0.234375 C 4.117188 -0.554688 3.472656 -1 2.921875 -1.5625 C 2.378906 -2.125 1.941406 -2.785156 1.609375 -3.546875 C 1.285156 -4.304688 1.125 -5.128906 1.125 -6.015625 C 1.125 -6.878906 1.285156 -7.695312 1.609375 -8.46875 C 1.941406 -9.238281 2.378906 -9.898438 2.921875 -10.453125 C 3.472656 -11.015625 4.117188 -11.457031 4.859375 -11.78125 C 5.609375 -12.101562 6.410156 -12.265625 7.265625 -12.265625 C 8.117188 -12.265625 8.914062 -12.101562 9.65625 -11.78125 C 10.394531 -11.457031 11.039062 -11.015625 11.59375 -10.453125 C 12.144531 -9.898438 12.582031 -9.238281 12.90625 -8.46875 C 13.238281 -7.695312 13.40625 -6.878906 13.40625 -6.015625 C 13.40625 -5.128906 13.238281 -4.304688 12.90625 -3.546875 C 12.582031 -2.785156 12.144531 -2.125 11.59375 -1.5625 C 11.039062 -1 10.394531 -0.554688 9.65625 -0.234375 C 8.914062 0.0859375 8.117188 0.25 7.265625 0.25 Z M 7.265625 -1.375 C 7.867188 -1.375 8.429688 -1.488281 8.953125 -1.71875 C 9.484375 -1.957031 9.945312 -2.285156 10.34375 -2.703125 C 10.75 -3.117188 11.066406 -3.609375 11.296875 -4.171875 C 11.523438 -4.742188 11.640625 -5.359375 11.640625 -6.015625 C 11.640625 -6.660156 11.523438 -7.265625 11.296875 -7.828125 C 11.066406 -8.398438 10.75 -8.894531 10.34375 -9.3125 C 9.945312 -9.726562 9.484375 -10.050781 8.953125 -10.28125 C 8.429688 -10.519531 7.867188 -10.640625 7.265625 -10.640625 C 6.660156 -10.640625 6.09375 -10.519531 5.5625 -10.28125 C 5.039062 -10.050781 4.578125 -9.726562 4.171875 -9.3125 C 3.773438 -8.894531 3.457031 -8.398438 3.21875 -7.828125 C 2.988281 -7.265625 2.875 -6.660156 2.875 -6.015625 C 2.875 -5.359375 2.988281 -4.742188 3.21875 -4.171875 C 3.457031 -3.609375 3.773438 -3.125 4.171875 -2.71875 C 4.578125 -2.3125 5.039062 -1.984375 5.5625 -1.734375 C 6.09375 -1.492188 6.660156 -1.375 7.265625 -1.375 Z M 7.265625 -1.375 "/></g></g></g><g fill="#b4b4b4" fill-opacity="1"><g transform="translate(109.837342, 59.15969)"><g><path d="M 2 -12.015625 L 3.75 -12.015625 L 3.75 -10.265625 C 4 -10.628906 4.316406 -10.960938 4.703125 -11.265625 C 5.035156 -11.515625 5.441406 -11.742188 5.921875 -11.953125 C 6.398438 -12.160156 6.972656 -12.265625 7.640625 -12.265625 C 8.359375 -12.265625 9.015625 -12.144531 9.609375 -11.90625 C 10.210938 -11.664062 10.726562 -11.320312 11.15625 -10.875 C 11.582031 -10.4375 11.914062 -9.898438 12.15625 -9.265625 C 12.394531 -8.628906 12.515625 -7.921875 12.515625 -7.140625 L 12.515625 0 L 10.765625 0 L 10.765625 -7.140625 C 10.765625 -8.203125 10.457031 -9.050781 9.84375 -9.6875 C 9.238281 -10.320312 8.460938 -10.640625 7.515625 -10.640625 C 6.984375 -10.640625 6.484375 -10.539062 6.015625 -10.34375 C 5.554688 -10.15625 5.160156 -9.882812 4.828125 -9.53125 C 4.492188 -9.1875 4.226562 -8.769531 4.03125 -8.28125 C 3.84375 -7.789062 3.75 -7.242188 3.75 -6.640625 L 3.75 0 L 2 0 Z M 2 -12.015625 "/></g></g></g><g fill="#b4b4b4" fill-opacity="1"><g transform="translate(124.358074, 59.15969)"><g><path d="M 5.265625 0.25 C 4.503906 0.25 3.847656 0.140625 3.296875 -0.078125 C 2.753906 -0.296875 2.296875 -0.535156 1.921875 -0.796875 C 1.492188 -1.097656 1.144531 -1.457031 0.875 -1.875 L 2.125 -3.125 C 2.363281 -2.789062 2.632812 -2.5 2.9375 -2.25 C 3.195312 -2.019531 3.523438 -1.816406 3.921875 -1.640625 C 4.316406 -1.460938 4.765625 -1.375 5.265625 -1.375 C 6.148438 -1.375 6.804688 -1.566406 7.234375 -1.953125 C 7.671875 -2.335938 7.890625 -2.8125 7.890625 -3.375 C 7.890625 -3.832031 7.722656 -4.191406 7.390625 -4.453125 C 7.066406 -4.722656 6.664062 -4.945312 6.1875 -5.125 C 5.71875 -5.300781 5.195312 -5.46875 4.625 -5.625 C 4.0625 -5.78125 3.539062 -5.984375 3.0625 -6.234375 C 2.59375 -6.484375 2.191406 -6.816406 1.859375 -7.234375 C 1.535156 -7.648438 1.375 -8.203125 1.375 -8.890625 C 1.375 -9.328125 1.46875 -9.75 1.65625 -10.15625 C 1.851562 -10.5625 2.125 -10.921875 2.46875 -11.234375 C 2.820312 -11.546875 3.242188 -11.796875 3.734375 -11.984375 C 4.234375 -12.171875 4.785156 -12.265625 5.390625 -12.265625 C 6.023438 -12.265625 6.578125 -12.175781 7.046875 -12 C 7.523438 -11.832031 7.929688 -11.648438 8.265625 -11.453125 C 8.648438 -11.210938 8.984375 -10.941406 9.265625 -10.640625 L 8.015625 -9.390625 C 7.828125 -9.628906 7.609375 -9.835938 7.359375 -10.015625 C 7.128906 -10.171875 6.847656 -10.3125 6.515625 -10.4375 C 6.191406 -10.570312 5.816406 -10.640625 5.390625 -10.640625 C 4.703125 -10.640625 4.148438 -10.457031 3.734375 -10.09375 C 3.328125 -9.726562 3.125 -9.328125 3.125 -8.890625 C 3.125 -8.453125 3.285156 -8.109375 3.609375 -7.859375 C 3.941406 -7.609375 4.34375 -7.398438 4.8125 -7.234375 C 5.289062 -7.066406 5.8125 -6.90625 6.375 -6.75 C 6.945312 -6.59375 7.472656 -6.382812 7.953125 -6.125 C 8.429688 -5.863281 8.832031 -5.515625 9.15625 -5.078125 C 9.476562 -4.648438 9.640625 -4.082031 9.640625 -3.375 C 9.640625 -2.875 9.539062 -2.398438 9.34375 -1.953125 C 9.144531 -1.515625 8.859375 -1.132812 8.484375 -0.8125 C 8.109375 -0.488281 7.644531 -0.226562 7.09375 -0.03125 C 6.550781 0.15625 5.941406 0.25 5.265625 0.25 Z M 5.265625 0.25 "/></g></g></g><g fill="#b4b4b4" fill-opacity="1"><g transform="translate(135.123446, 59.15969)"><g><path d="M 6.3125 0.25 C 5.28125 0.25 4.46875 -0.046875 3.875 -0.640625 C 3.289062 -1.242188 3 -2.113281 3 -3.25 L 3 -10.390625 L 0.75 -10.390625 L 0.75 -12.015625 L 2.125 -12.015625 C 2.789062 -12.015625 3.125 -12.4375 3.125 -13.28125 L 3.125 -16.03125 L 4.765625 -16.03125 L 4.765625 -12.015625 L 7.390625 -12.015625 L 7.390625 -10.390625 L 4.765625 -10.390625 L 4.765625 -3.25 C 4.765625 -2.613281 4.910156 -2.140625 5.203125 -1.828125 C 5.492188 -1.523438 5.890625 -1.375 6.390625 -1.375 C 6.609375 -1.375 6.816406 -1.390625 7.015625 -1.421875 C 7.210938 -1.460938 7.390625 -1.503906 7.546875 -1.546875 C 7.722656 -1.617188 7.878906 -1.6875 8.015625 -1.75 L 8.015625 -0.125 C 7.867188 -0.0625 7.703125 0.00390625 7.515625 0.078125 C 7.359375 0.128906 7.175781 0.171875 6.96875 0.203125 C 6.757812 0.234375 6.539062 0.25 6.3125 0.25 Z M 6.3125 0.25 "/></g></g></g><g fill="#b4b4b4" fill-opacity="1"><g transform="translate(144.136326, 59.15969)"><g><path d="M 2 -12.015625 L 3.75 -12.015625 L 3.75 -10.390625 C 4.019531 -10.722656 4.347656 -11.035156 4.734375 -11.328125 C 5.066406 -11.554688 5.476562 -11.769531 5.96875 -11.96875 C 6.46875 -12.164062 7.066406 -12.265625 7.765625 -12.265625 L 8.265625 -12.265625 L 8.265625 -10.515625 L 7.515625 -10.515625 C 7.015625 -10.515625 6.535156 -10.421875 6.078125 -10.234375 C 5.628906 -10.054688 5.226562 -9.800781 4.875 -9.46875 C 4.53125 -9.132812 4.253906 -8.726562 4.046875 -8.25 C 3.847656 -7.78125 3.75 -7.242188 3.75 -6.640625 L 3.75 0 L 2 0 Z M 2 -12.015625 "/></g></g></g><g fill="#b4b4b4" fill-opacity="1"><g transform="translate(152.773658, 59.15969)"><g><path d="M 6.890625 0.25 C 6.203125 0.25 5.554688 0.125 4.953125 -0.125 C 4.359375 -0.375 3.84375 -0.734375 3.40625 -1.203125 C 2.96875 -1.671875 2.625 -2.222656 2.375 -2.859375 C 2.125 -3.503906 2 -4.222656 2 -5.015625 L 2 -12.015625 L 3.75 -12.015625 L 3.75 -5.015625 C 3.75 -4.472656 3.835938 -3.976562 4.015625 -3.53125 C 4.191406 -3.09375 4.429688 -2.710938 4.734375 -2.390625 C 5.046875 -2.066406 5.40625 -1.816406 5.8125 -1.640625 C 6.226562 -1.460938 6.671875 -1.375 7.140625 -1.375 C 7.640625 -1.375 8.109375 -1.46875 8.546875 -1.65625 C 8.992188 -1.851562 9.378906 -2.125 9.703125 -2.46875 C 10.023438 -2.820312 10.28125 -3.242188 10.46875 -3.734375 C 10.664062 -4.234375 10.765625 -4.785156 10.765625 -5.390625 L 10.765625 -12.015625 L 12.515625 -12.015625 L 12.515625 0 L 10.765625 0 L 10.765625 -1.625 C 10.515625 -1.28125 10.195312 -0.960938 9.8125 -0.671875 C 9.476562 -0.441406 9.066406 -0.226562 8.578125 -0.03125 C 8.097656 0.15625 7.535156 0.25 6.890625 0.25 Z M 6.890625 0.25 "/></g></g></g><g fill="#b4b4b4" fill-opacity="1"><g transform="translate(167.419563, 59.15969)"><g><path d="M 7.140625 0.25 C 6.316406 0.25 5.539062 0.0859375 4.8125 -0.234375 C 4.09375 -0.554688 3.457031 -1 2.90625 -1.5625 C 2.351562 -2.125 1.914062 -2.785156 1.59375 -3.546875 C 1.28125 -4.304688 1.125 -5.128906 1.125 -6.015625 C 1.125 -6.878906 1.28125 -7.695312 1.59375 -8.46875 C 1.914062 -9.238281 2.351562 -9.898438 2.90625 -10.453125 C 3.457031 -11.015625 4.09375 -11.457031 4.8125 -11.78125 C 5.539062 -12.101562 6.316406 -12.265625 7.140625 -12.265625 C 7.921875 -12.265625 8.613281 -12.140625 9.21875 -11.890625 C 9.820312 -11.640625 10.332031 -11.367188 10.75 -11.078125 C 11.226562 -10.722656 11.648438 -10.328125 12.015625 -9.890625 L 10.765625 -8.640625 C 10.503906 -9.003906 10.195312 -9.335938 9.84375 -9.640625 C 9.539062 -9.890625 9.160156 -10.117188 8.703125 -10.328125 C 8.242188 -10.535156 7.722656 -10.640625 7.140625 -10.640625 C 6.566406 -10.640625 6.023438 -10.519531 5.515625 -10.28125 C 5.015625 -10.050781 4.566406 -9.726562 4.171875 -9.3125 C 3.773438 -8.894531 3.457031 -8.398438 3.21875 -7.828125 C 2.988281 -7.265625 2.875 -6.660156 2.875 -6.015625 C 2.875 -5.359375 2.988281 -4.742188 3.21875 -4.171875 C 3.457031 -3.609375 3.773438 -3.117188 4.171875 -2.703125 C 4.566406 -2.285156 5.015625 -1.957031 5.515625 -1.71875 C 6.023438 -1.488281 6.566406 -1.375 7.140625 -1.375 C 7.722656 -1.375 8.25 -1.476562 8.71875 -1.6875 C 9.1875 -1.894531 9.585938 -2.125 9.921875 -2.375 C 10.304688 -2.675781 10.628906 -3.007812 10.890625 -3.375 L 12.140625 -2.25 C 11.765625 -1.78125 11.320312 -1.363281 10.8125 -1 C 10.382812 -0.6875 9.859375 -0.398438 9.234375 -0.140625 C 8.617188 0.117188 7.921875 0.25 7.140625 0.25 Z M 7.140625 0.25 "/></g></g></g><g fill="#b4b4b4" fill-opacity="1"><g transform="translate(180.312975, 59.15969)"><g><path d="M 6.3125 0.25 C 5.28125 0.25 4.46875 -0.046875 3.875 -0.640625 C 3.289062 -1.242188 3 -2.113281 3 -3.25 L 3 -10.390625 L 0.75 -10.390625 L 0.75 -12.015625 L 2.125 -12.015625 C 2.789062 -12.015625 3.125 -12.4375 3.125 -13.28125 L 3.125 -16.03125 L 4.765625 -16.03125 L 4.765625 -12.015625 L 7.390625 -12.015625 L 7.390625 -10.390625 L 4.765625 -10.390625 L 4.765625 -3.25 C 4.765625 -2.613281 4.910156 -2.140625 5.203125 -1.828125 C 5.492188 -1.523438 5.890625 -1.375 6.390625 -1.375 C 6.609375 -1.375 6.816406 -1.390625 7.015625 -1.421875 C 7.210938 -1.460938 7.390625 -1.503906 7.546875 -1.546875 C 7.722656 -1.617188 7.878906 -1.6875 8.015625 -1.75 L 8.015625 -0.125 C 7.867188 -0.0625 7.703125 0.00390625 7.515625 0.078125 C 7.359375 0.128906 7.175781 0.171875 6.96875 0.203125 C 6.757812 0.234375 6.539062 0.25 6.3125 0.25 Z M 6.3125 0.25 "/></g></g></g><g fill="#b4b4b4" fill-opacity="1"><g transform="translate(189.325841, 59.15969)"><g><path d="M 2 -12.015625 L 3.75 -12.015625 L 3.75 0 L 2 0 Z M 2.875 -14.90625 C 2.5625 -14.90625 2.296875 -15.007812 2.078125 -15.21875 C 1.859375 -15.4375 1.75 -15.707031 1.75 -16.03125 C 1.75 -16.34375 1.859375 -16.609375 2.078125 -16.828125 C 2.296875 -17.046875 2.5625 -17.15625 2.875 -17.15625 C 3.195312 -17.15625 3.460938 -17.046875 3.671875 -16.828125 C 3.890625 -16.609375 4 -16.34375 4 -16.03125 C 4 -15.707031 3.890625 -15.4375 3.671875 -15.21875 C 3.460938 -15.007812 3.195312 -14.90625 2.875 -14.90625 Z M 2.875 -14.90625 "/></g></g></g><g fill="#b4b4b4" fill-opacity="1"><g transform="translate(195.084067, 59.15969)"><g><path d="M 7.265625 0.25 C 6.410156 0.25 5.609375 0.0859375 4.859375 -0.234375 C 4.117188 -0.554688 3.472656 -1 2.921875 -1.5625 C 2.378906 -2.125 1.941406 -2.785156 1.609375 -3.546875 C 1.285156 -4.304688 1.125 -5.128906 1.125 -6.015625 C 1.125 -6.878906 1.285156 -7.695312 1.609375 -8.46875 C 1.941406 -9.238281 2.378906 -9.898438 2.921875 -10.453125 C 3.472656 -11.015625 4.117188 -11.457031 4.859375 -11.78125 C 5.609375 -12.101562 6.410156 -12.265625 7.265625 -12.265625 C 8.117188 -12.265625 8.914062 -12.101562 9.65625 -11.78125 C 10.394531 -11.457031 11.039062 -11.015625 11.59375 -10.453125 C 12.144531 -9.898438 12.582031 -9.238281 12.90625 -8.46875 C 13.238281 -7.695312 13.40625 -6.878906 13.40625 -6.015625 C 13.40625 -5.128906 13.238281 -4.304688 12.90625 -3.546875 C 12.582031 -2.785156 12.144531 -2.125 11.59375 -1.5625 C 11.039062 -1 10.394531 -0.554688 9.65625 -0.234375 C 8.914062 0.0859375 8.117188 0.25 7.265625 0.25 Z M 7.265625 -1.375 C 7.867188 -1.375 8.429688 -1.488281 8.953125 -1.71875 C 9.484375 -1.957031 9.945312 -2.285156 10.34375 -2.703125 C 10.75 -3.117188 11.066406 -3.609375 11.296875 -4.171875 C 11.523438 -4.742188 11.640625 -5.359375 11.640625 -6.015625 C 11.640625 -6.660156 11.523438 -7.265625 11.296875 -7.828125 C 11.066406 -8.398438 10.75 -8.894531 10.34375 -9.3125 C 9.945312 -9.726562 9.484375 -10.050781 8.953125 -10.28125 C 8.429688 -10.519531 7.867188 -10.640625 7.265625 -10.640625 C 6.660156 -10.640625 6.09375 -10.519531 5.5625 -10.28125 C 5.039062 -10.050781 4.578125 -9.726562 4.171875 -9.3125 C 3.773438 -8.894531 3.457031 -8.398438 3.21875 -7.828125 C 2.988281 -7.265625 2.875 -6.660156 2.875 -6.015625 C 2.875 -5.359375 2.988281 -4.742188 3.21875 -4.171875 C 3.457031 -3.609375 3.773438 -3.125 4.171875 -2.71875 C 4.578125 -2.3125 5.039062 -1.984375 5.5625 -1.734375 C 6.09375 -1.492188 6.660156 -1.375 7.265625 -1.375 Z M 7.265625 -1.375 "/></g></g></g><g fill="#b4b4b4" fill-opacity="1"><g transform="translate(209.604799, 59.15969)"><g><path d="M 2 -12.015625 L 3.75 -12.015625 L 3.75 -10.265625 C 4 -10.628906 4.316406 -10.960938 4.703125 -11.265625 C 5.035156 -11.515625 5.441406 -11.742188 5.921875 -11.953125 C 6.398438 -12.160156 6.972656 -12.265625 7.640625 -12.265625 C 8.359375 -12.265625 9.015625 -12.144531 9.609375 -11.90625 C 10.210938 -11.664062 10.726562 -11.320312 11.15625 -10.875 C 11.582031 -10.4375 11.914062 -9.898438 12.15625 -9.265625 C 12.394531 -8.628906 12.515625 -7.921875 12.515625 -7.140625 L 12.515625 0 L 10.765625 0 L 10.765625 -7.140625 C 10.765625 -8.203125 10.457031 -9.050781 9.84375 -9.6875 C 9.238281 -10.320312 8.460938 -10.640625 7.515625 -10.640625 C 6.984375 -10.640625 6.484375 -10.539062 6.015625 -10.34375 C 5.554688 -10.15625 5.160156 -9.882812 4.828125 -9.53125 C 4.492188 -9.1875 4.226562 -8.769531 4.03125 -8.28125 C 3.84375 -7.789062 3.75 -7.242188 3.75 -6.640625 L 3.75 0 L 2 0 Z M 2 -12.015625 "/></g></g></g></g></g></g><g fill="#b4b4b4" fill-opacity="1"><g transform="translate(7.914391, 83.181787)"><g><path d="M 9.671875 0 L 7.859375 0 C 7.691406 -0.351562 7.53125 -0.671875 7.375 -0.953125 C 7.300781 -1.078125 7.15625 -1.140625 6.9375 -1.140625 L 3.0625 -1.140625 C 2.84375 -1.140625 2.703125 -1.078125 2.640625 -0.953125 C 2.597656 -0.878906 2.429688 -0.5625 2.140625 0 L 0.328125 0 L 3.5625 -5.9375 L 6.4375 -5.9375 Z M 6.625 -2.375 C 6.625 -2.4375 6.597656 -2.515625 6.546875 -2.609375 L 5.46875 -4.75 C 5.382812 -4.914062 5.300781 -5 5.21875 -5 L 4.765625 -5 C 4.691406 -5 4.613281 -4.914062 4.53125 -4.75 L 3.46875 -2.625 C 3.414062 -2.519531 3.390625 -2.441406 3.390625 -2.390625 C 3.390625 -2.234375 3.492188 -2.15625 3.703125 -2.15625 L 6.3125 -2.15625 C 6.519531 -2.15625 6.625 -2.226562 6.625 -2.375 Z M 6.625 -2.375 "/></g></g></g><g fill="#b4b4b4" fill-opacity="1"><g transform="translate(19.74706, 83.181787)"><g><path d="M 7.25 -0.84375 C 7.25 -0.632812 7.1875 -0.445312 7.0625 -0.28125 C 6.925781 -0.09375 6.765625 0 6.578125 0 L 0.5625 0 L 0.5625 -5.046875 L 6.5 -5.046875 C 6.726562 -5.046875 6.910156 -4.96875 7.046875 -4.8125 C 7.179688 -4.664062 7.25 -4.476562 7.25 -4.25 Z M 5.84375 -1.28125 L 5.84375 -3.796875 C 5.84375 -4.066406 5.695312 -4.203125 5.40625 -4.203125 L 1.984375 -4.203125 L 2 -0.875 L 5.40625 -0.875 C 5.695312 -0.875 5.84375 -1.007812 5.84375 -1.28125 Z M 5.84375 -1.28125 "/></g></g></g><g fill="#b4b4b4" fill-opacity="1"><g transform="translate(29.790976, 83.181787)"><g><path d="M 10.265625 0 L 8.90625 0 L 8.90625 -3.859375 C 8.90625 -4.003906 8.851562 -4.078125 8.75 -4.078125 L 8.5625 -4.078125 C 8.5 -4.078125 8.425781 -4.003906 8.34375 -3.859375 L 6.09375 -0.109375 C 6.0625 -0.0351562 6 0 5.90625 0 L 5 0 C 4.914062 0 4.851562 -0.0351562 4.8125 -0.109375 L 2.5625 -3.859375 C 2.46875 -4.003906 2.390625 -4.078125 2.328125 -4.078125 L 2.15625 -4.078125 C 2.039062 -4.078125 1.984375 -4.003906 1.984375 -3.859375 L 1.984375 0 L 0.53125 0 L 0.53125 -5.03125 L 3.203125 -5.03125 L 5.15625 -2 C 5.21875 -1.875 5.316406 -1.8125 5.453125 -1.8125 C 5.597656 -1.8125 5.695312 -1.875 5.75 -2 L 7.6875 -5.03125 L 10.265625 -5.03125 Z M 10.265625 0 "/></g></g></g><g fill="#b4b4b4" fill-opacity="1"><g transform="translate(42.737734, 83.181787)"><g><path d="M 2.015625 0 L 0.59375 0 L 0.59375 -5.046875 L 2.015625 -5.046875 Z M 2.015625 0 "/></g></g></g><g fill="#b4b4b4" fill-opacity="1"><g transform="translate(47.374377, 83.181787)"><g><path d="M 8.140625 0 L 5.328125 0 L 2.65625 -3.859375 C 2.550781 -4.003906 2.476562 -4.078125 2.4375 -4.078125 L 2.25 -4.078125 C 2.132812 -4.078125 2.078125 -4.003906 2.078125 -3.859375 L 2.078125 0 L 0.6875 0 L 0.6875 -5.046875 L 3.46875 -5.046875 L 6.15625 -1.1875 C 6.257812 -1.039062 6.347656 -0.96875 6.421875 -0.96875 L 6.578125 -0.96875 C 6.691406 -0.96875 6.75 -1.039062 6.75 -1.1875 L 6.75 -5.046875 L 8.140625 -5.046875 Z M 8.140625 0 "/></g></g></g><g fill="#b4b4b4" fill-opacity="1"><g transform="translate(58.207023, 83.181787)"><g><path d="M 2.015625 0 L 0.59375 0 L 0.59375 -5.046875 L 2.015625 -5.046875 Z M 2.015625 0 "/></g></g></g><g fill="#b4b4b4" fill-opacity="1"><g transform="translate(62.843666, 83.181787)"><g><path d="M 7.078125 -0.8125 C 7.078125 -0.582031 7 -0.390625 6.84375 -0.234375 C 6.6875 -0.078125 6.492188 0 6.265625 0 L 1.484375 0 C 0.953125 0 0.6875 -0.347656 0.6875 -1.046875 L 0.703125 -1.21875 L 2.109375 -1.21875 C 2.109375 -1.113281 2.148438 -1.015625 2.234375 -0.921875 C 2.328125 -0.835938 2.425781 -0.796875 2.53125 -0.796875 L 5.109375 -0.796875 C 5.359375 -0.796875 5.515625 -0.878906 5.578125 -1.046875 C 5.617188 -1.140625 5.640625 -1.328125 5.640625 -1.609375 C 5.640625 -1.765625 5.585938 -1.890625 5.484375 -1.984375 C 5.390625 -2.078125 5.265625 -2.125 5.109375 -2.125 L 1.4375 -2.125 C 1.207031 -2.125 1.015625 -2.203125 0.859375 -2.359375 C 0.710938 -2.523438 0.640625 -2.722656 0.640625 -2.953125 L 0.640625 -4.234375 C 0.640625 -4.460938 0.710938 -4.65625 0.859375 -4.8125 C 1.015625 -4.96875 1.207031 -5.046875 1.4375 -5.046875 L 6.234375 -5.046875 C 6.765625 -5.046875 7.03125 -4.695312 7.03125 -4 L 7.015625 -3.828125 L 5.59375 -3.828125 C 5.59375 -3.929688 5.550781 -4.023438 5.46875 -4.109375 C 5.382812 -4.203125 5.289062 -4.25 5.1875 -4.25 L 2.609375 -4.234375 C 2.359375 -4.234375 2.203125 -4.15625 2.140625 -4 C 2.097656 -3.90625 2.078125 -3.71875 2.078125 -3.4375 C 2.078125 -3.28125 2.125 -3.15625 2.21875 -3.0625 C 2.320312 -2.976562 2.453125 -2.9375 2.609375 -2.9375 L 6.28125 -2.9375 C 6.507812 -2.9375 6.695312 -2.851562 6.84375 -2.6875 C 7 -2.53125 7.078125 -2.335938 7.078125 -2.109375 Z M 7.078125 -0.8125 "/></g></g></g><g fill="#b4b4b4" fill-opacity="1"><g transform="translate(72.196209, 83.181787)"><g><path d="M 6.71875 -4.140625 L 4.6875 -4.140625 C 4.375 -4.140625 4.21875 -4.007812 4.21875 -3.75 L 4.21875 0 L 2.828125 0 L 2.828125 -3.75 C 2.828125 -4.007812 2.679688 -4.140625 2.390625 -4.140625 L 0.34375 -4.140625 L 0.34375 -5.046875 L 6.71875 -5.046875 Z M 6.71875 -4.140625 "/></g></g></g><g fill="#b4b4b4" fill-opacity="1"><g transform="translate(81.280598, 83.181787)"><g><path d="M 6.46875 0 L 0.546875 0 L 0.546875 -5.046875 L 6.46875 -5.046875 L 6.46875 -4.1875 L 2.4375 -4.1875 C 2.257812 -4.1875 2.132812 -4.128906 2.0625 -4.015625 C 2.019531 -3.929688 2 -3.789062 2 -3.59375 C 2 -3.375 2.019531 -3.226562 2.0625 -3.15625 C 2.125 -3.03125 2.25 -2.96875 2.4375 -2.96875 L 6.125 -2.96875 L 6.125 -2.109375 L 2.4375 -2.109375 C 2.257812 -2.109375 2.132812 -2.054688 2.0625 -1.953125 C 2.019531 -1.867188 2 -1.726562 2 -1.53125 C 2 -1.300781 2.015625 -1.144531 2.046875 -1.0625 C 2.109375 -0.925781 2.238281 -0.859375 2.4375 -0.859375 L 6.46875 -0.859375 Z M 6.46875 0 "/></g></g></g><g fill="#b4b4b4" fill-opacity="1"><g transform="translate(90.446453, 83.181787)"><g><path d="M 7.328125 0 L 5.875 0 L 5.875 -1.546875 C 5.875 -1.703125 5.820312 -1.820312 5.71875 -1.90625 C 5.625 -2 5.5 -2.046875 5.34375 -2.046875 L 2.296875 -2.046875 C 2.148438 -2.046875 2.078125 -1.96875 2.078125 -1.8125 L 2.078125 0 L 0.640625 0 L 0.640625 -5.046875 L 6.5 -5.046875 C 6.726562 -5.046875 6.914062 -4.96875 7.0625 -4.8125 C 7.21875 -4.65625 7.296875 -4.457031 7.296875 -4.21875 L 7.296875 -3.4375 C 7.296875 -3.300781 7.191406 -3.140625 6.984375 -2.953125 C 6.773438 -2.773438 6.671875 -2.625 6.671875 -2.5 C 6.671875 -2.414062 6.78125 -2.273438 7 -2.078125 C 7.21875 -1.878906 7.328125 -1.660156 7.328125 -1.421875 Z M 5.875 -3.78125 C 5.875 -4.050781 5.734375 -4.1875 5.453125 -4.1875 L 2.296875 -4.1875 C 2.148438 -4.1875 2.078125 -4.113281 2.078125 -3.96875 L 2.078125 -3.109375 C 2.078125 -2.960938 2.148438 -2.890625 2.296875 -2.890625 L 5.453125 -2.890625 C 5.734375 -2.890625 5.875 -3.03125 5.875 -3.3125 Z M 5.875 -3.78125 "/></g></g></g><g fill="#b4b4b4" fill-opacity="1"><g transform="translate(100.425316, 83.181787)"><g><path d="M 6.46875 0 L 0.546875 0 L 0.546875 -5.046875 L 6.46875 -5.046875 L 6.46875 -4.1875 L 2.4375 -4.1875 C 2.257812 -4.1875 2.132812 -4.128906 2.0625 -4.015625 C 2.019531 -3.929688 2 -3.789062 2 -3.59375 C 2 -3.375 2.019531 -3.226562 2.0625 -3.15625 C 2.125 -3.03125 2.25 -2.96875 2.4375 -2.96875 L 6.125 -2.96875 L 6.125 -2.109375 L 2.4375 -2.109375 C 2.257812 -2.109375 2.132812 -2.054688 2.0625 -1.953125 C 2.019531 -1.867188 2 -1.726562 2 -1.53125 C 2 -1.300781 2.015625 -1.144531 2.046875 -1.0625 C 2.109375 -0.925781 2.238281 -0.859375 2.4375 -0.859375 L 6.46875 -0.859375 Z M 6.46875 0 "/></g></g></g><g fill="#b4b4b4" fill-opacity="1"><g transform="translate(109.52608, 83.181787)"><g><path d="M 7.25 -0.84375 C 7.25 -0.632812 7.1875 -0.445312 7.0625 -0.28125 C 6.925781 -0.09375 6.765625 0 6.578125 0 L 0.5625 0 L 0.5625 -5.046875 L 6.5 -5.046875 C 6.726562 -5.046875 6.910156 -4.96875 7.046875 -4.8125 C 7.179688 -4.664062 7.25 -4.476562 7.25 -4.25 Z M 5.84375 -1.28125 L 5.84375 -3.796875 C 5.84375 -4.066406 5.695312 -4.203125 5.40625 -4.203125 L 1.984375 -4.203125 L 2 -0.875 L 5.40625 -0.875 C 5.695312 -0.875 5.84375 -1.007812 5.84375 -1.28125 Z M 5.84375 -1.28125 "/></g></g></g><g fill="#b4b4b4" fill-opacity="1"><g transform="translate(119.569997, 83.181787)"><g/></g></g><g fill="#b4b4b4" fill-opacity="1"><g transform="translate(126.12561, 83.181787)"><g><path d="M 7.453125 -0.84375 C 7.453125 -0.632812 7.382812 -0.445312 7.25 -0.28125 C 7.101562 -0.09375 6.9375 0 6.75 0 L 0.53125 0 L 0.53125 -5.046875 L 6.46875 -5.046875 C 6.695312 -5.046875 6.878906 -4.96875 7.015625 -4.8125 C 7.148438 -4.664062 7.21875 -4.476562 7.21875 -4.25 L 7.21875 -3.546875 C 7.21875 -3.398438 7.148438 -3.25 7.015625 -3.09375 C 6.890625 -2.9375 6.828125 -2.796875 6.828125 -2.671875 C 6.828125 -2.585938 6.929688 -2.445312 7.140625 -2.25 C 7.347656 -2.050781 7.453125 -1.832031 7.453125 -1.59375 Z M 5.828125 -3.796875 C 5.828125 -4.078125 5.6875 -4.21875 5.40625 -4.21875 L 2.203125 -4.203125 C 2.054688 -4.203125 1.984375 -4.128906 1.984375 -3.984375 L 1.984375 -3.1875 C 1.984375 -3.039062 2.054688 -2.96875 2.203125 -2.96875 L 5.390625 -2.96875 C 5.679688 -2.96875 5.828125 -3.101562 5.828125 -3.375 Z M 5.828125 -1.546875 L 5.828125 -1.640625 C 5.804688 -1.984375 5.628906 -2.15625 5.296875 -2.15625 L 2.203125 -2.15625 C 2.054688 -2.15625 1.984375 -2.078125 1.984375 -1.921875 L 1.984375 -1.953125 L 1.984375 -1.09375 C 1.984375 -0.945312 2.054688 -0.875 2.203125 -0.875 L 5.40625 -0.875 C 5.6875 -0.875 5.828125 -1.007812 5.828125 -1.28125 Z M 5.828125 -1.546875 "/></g></g></g><g fill="#b4b4b4" fill-opacity="1"><g transform="translate(135.868492, 83.181787)"><g><path d="M 7.25 -5.046875 C 6.457031 -4.148438 5.601562 -3.179688 4.6875 -2.140625 C 4.507812 -1.929688 4.421875 -1.71875 4.421875 -1.5 L 4.421875 0 L 3.03125 0 L 3.03125 -1.5 C 3.03125 -1.675781 3.015625 -1.800781 2.984375 -1.875 C 2.960938 -1.945312 2.914062 -2.023438 2.84375 -2.109375 L 0.140625 -5.03125 L 1.9375 -5.03125 L 3.359375 -3.25 C 3.460938 -3.101562 3.582031 -3.03125 3.71875 -3.03125 C 3.882812 -3.03125 4.019531 -3.101562 4.125 -3.25 L 5.515625 -5.046875 Z M 7.25 -5.046875 "/></g></g></g><g fill="#b4b4b4" fill-opacity="1"><g transform="translate(145.270039, 83.181787)"><g/></g></g><g fill="#b4b4b4" fill-opacity="1"><g transform="translate(151.825653, 83.181787)"><g><path d="M 9.671875 0 L 7.859375 0 C 7.691406 -0.351562 7.53125 -0.671875 7.375 -0.953125 C 7.300781 -1.078125 7.15625 -1.140625 6.9375 -1.140625 L 3.0625 -1.140625 C 2.84375 -1.140625 2.703125 -1.078125 2.640625 -0.953125 C 2.597656 -0.878906 2.429688 -0.5625 2.140625 0 L 0.328125 0 L 3.5625 -5.9375 L 6.4375 -5.9375 Z M 6.625 -2.375 C 6.625 -2.4375 6.597656 -2.515625 6.546875 -2.609375 L 5.46875 -4.75 C 5.382812 -4.914062 5.300781 -5 5.21875 -5 L 4.765625 -5 C 4.691406 -5 4.613281 -4.914062 4.53125 -4.75 L 3.46875 -2.625 C 3.414062 -2.519531 3.390625 -2.441406 3.390625 -2.390625 C 3.390625 -2.234375 3.492188 -2.15625 3.703125 -2.15625 L 6.3125 -2.15625 C 6.519531 -2.15625 6.625 -2.226562 6.625 -2.375 Z M 6.625 -2.375 "/></g></g></g><g fill="#b4b4b4" fill-opacity="1"><g transform="translate(163.324751, 83.181787)"><g><path d="M 8.125 -0.953125 C 8.125 -0.679688 8.035156 -0.453125 7.859375 -0.265625 C 7.691406 -0.0859375 7.46875 0 7.1875 0 L 1.5625 0 C 0.925781 0 0.613281 -0.40625 0.625 -1.21875 L 0.625 -1.4375 L 2.296875 -1.4375 C 2.296875 -1.3125 2.347656 -1.195312 2.453125 -1.09375 C 2.554688 -0.988281 2.664062 -0.9375 2.78125 -0.9375 L 5.828125 -0.9375 C 6.109375 -0.9375 6.289062 -1.035156 6.375 -1.234375 C 6.414062 -1.335938 6.4375 -1.554688 6.4375 -1.890625 C 6.4375 -2.078125 6.378906 -2.222656 6.265625 -2.328125 C 6.148438 -2.441406 6.003906 -2.5 5.828125 -2.5 L 1.5 -2.5 C 1.226562 -2.5 1.003906 -2.59375 0.828125 -2.78125 C 0.648438 -2.96875 0.5625 -3.195312 0.5625 -3.46875 L 0.5625 -4.96875 C 0.5625 -5.25 0.644531 -5.476562 0.8125 -5.65625 C 0.988281 -5.84375 1.21875 -5.9375 1.5 -5.9375 L 7.125 -5.9375 C 7.757812 -5.9375 8.070312 -5.53125 8.0625 -4.71875 L 8.0625 -4.5 L 6.390625 -4.5 C 6.390625 -4.625 6.335938 -4.738281 6.234375 -4.84375 C 6.128906 -4.945312 6.019531 -5 5.90625 -5 L 2.859375 -4.984375 C 2.578125 -4.984375 2.394531 -4.890625 2.3125 -4.703125 C 2.269531 -4.597656 2.25 -4.375 2.25 -4.03125 C 2.25 -3.851562 2.304688 -3.707031 2.421875 -3.59375 C 2.535156 -3.488281 2.679688 -3.4375 2.859375 -3.4375 L 7.203125 -3.4375 C 7.460938 -3.4375 7.679688 -3.34375 7.859375 -3.15625 C 8.035156 -2.976562 8.125 -2.753906 8.125 -2.484375 Z M 8.125 -0.953125 "/></g></g></g><g fill="#b4b4b4" fill-opacity="1"><g transform="translate(174.22245, 83.181787)"><g/></g></g><g fill="#b4b4b4" fill-opacity="1"><g transform="translate(180.778054, 83.181787)"><g><path d="M 8.125 -0.953125 C 8.125 -0.679688 8.035156 -0.453125 7.859375 -0.265625 C 7.691406 -0.0859375 7.46875 0 7.1875 0 L 1.5625 0 C 0.925781 0 0.613281 -0.40625 0.625 -1.21875 L 0.625 -1.4375 L 2.296875 -1.4375 C 2.296875 -1.3125 2.347656 -1.195312 2.453125 -1.09375 C 2.554688 -0.988281 2.664062 -0.9375 2.78125 -0.9375 L 5.828125 -0.9375 C 6.109375 -0.9375 6.289062 -1.035156 6.375 -1.234375 C 6.414062 -1.335938 6.4375 -1.554688 6.4375 -1.890625 C 6.4375 -2.078125 6.378906 -2.222656 6.265625 -2.328125 C 6.148438 -2.441406 6.003906 -2.5 5.828125 -2.5 L 1.5 -2.5 C 1.226562 -2.5 1.003906 -2.59375 0.828125 -2.78125 C 0.648438 -2.96875 0.5625 -3.195312 0.5625 -3.46875 L 0.5625 -4.96875 C 0.5625 -5.25 0.644531 -5.476562 0.8125 -5.65625 C 0.988281 -5.84375 1.21875 -5.9375 1.5 -5.9375 L 7.125 -5.9375 C 7.757812 -5.9375 8.070312 -5.53125 8.0625 -4.71875 L 8.0625 -4.5 L 6.390625 -4.5 C 6.390625 -4.625 6.335938 -4.738281 6.234375 -4.84375 C 6.128906 -4.945312 6.019531 -5 5.90625 -5 L 2.859375 -4.984375 C 2.578125 -4.984375 2.394531 -4.890625 2.3125 -4.703125 C 2.269531 -4.597656 2.25 -4.375 2.25 -4.03125 C 2.25 -3.851562 2.304688 -3.707031 2.421875 -3.59375 C 2.535156 -3.488281 2.679688 -3.4375 2.859375 -3.4375 L 7.203125 -3.4375 C 7.460938 -3.4375 7.679688 -3.34375 7.859375 -3.15625 C 8.035156 -2.976562 8.125 -2.753906 8.125 -2.484375 Z M 8.125 -0.953125 "/></g></g></g><g fill="#b4b4b4" fill-opacity="1"><g transform="translate(191.675753, 83.181787)"><g><path d="M 7.640625 -0.8125 C 7.640625 -0.582031 7.5625 -0.390625 7.40625 -0.234375 C 7.257812 -0.078125 7.070312 0 6.84375 0 L 1.390625 0 C 1.160156 0 0.96875 -0.078125 0.8125 -0.234375 C 0.664062 -0.390625 0.59375 -0.582031 0.59375 -0.8125 L 0.59375 -5.046875 L 2.03125 -5.046875 L 2.03125 -1.375 C 2.03125 -1.03125 2.203125 -0.859375 2.546875 -0.859375 L 5.671875 -0.859375 C 5.828125 -0.859375 5.953125 -0.90625 6.046875 -1 C 6.148438 -1.09375 6.203125 -1.21875 6.203125 -1.375 L 6.203125 -5.046875 L 7.640625 -5.046875 Z M 7.640625 -0.8125 "/></g></g></g><g fill="#b4b4b4" fill-opacity="1"><g transform="translate(202.24019, 83.181787)"><g><path d="M 7.125 -2.84375 C 7.125 -2.613281 7.050781 -2.421875 6.90625 -2.265625 C 6.757812 -2.109375 6.566406 -2.03125 6.328125 -2.03125 L 2.140625 -2.03125 C 1.992188 -2.03125 1.921875 -1.957031 1.921875 -1.8125 L 1.921875 0 L 0.484375 0 L 0.46875 -5.046875 L 6.328125 -5.046875 C 6.566406 -5.046875 6.757812 -4.96875 6.90625 -4.8125 C 7.050781 -4.65625 7.125 -4.457031 7.125 -4.21875 Z M 5.71875 -3.78125 C 5.71875 -4.050781 5.578125 -4.1875 5.296875 -4.1875 L 2.140625 -4.1875 C 1.992188 -4.1875 1.921875 -4.113281 1.921875 -3.96875 L 1.921875 -3.109375 C 1.921875 -2.960938 1.992188 -2.890625 2.140625 -2.890625 L 5.296875 -2.890625 C 5.578125 -2.890625 5.71875 -3.03125 5.71875 -3.3125 Z M 5.71875 -3.78125 "/></g></g></g><g fill="#b4b4b4" fill-opacity="1"><g transform="translate(211.85317, 83.181787)"><g><path d="M 7.125 -2.84375 C 7.125 -2.613281 7.050781 -2.421875 6.90625 -2.265625 C 6.757812 -2.109375 6.566406 -2.03125 6.328125 -2.03125 L 2.140625 -2.03125 C 1.992188 -2.03125 1.921875 -1.957031 1.921875 -1.8125 L 1.921875 0 L 0.484375 0 L 0.46875 -5.046875 L 6.328125 -5.046875 C 6.566406 -5.046875 6.757812 -4.96875 6.90625 -4.8125 C 7.050781 -4.65625 7.125 -4.457031 7.125 -4.21875 Z M 5.71875 -3.78125 C 5.71875 -4.050781 5.578125 -4.1875 5.296875 -4.1875 L 2.140625 -4.1875 C 1.992188 -4.1875 1.921875 -4.113281 1.921875 -3.96875 L 1.921875 -3.109375 C 1.921875 -2.960938 1.992188 -2.890625 2.140625 -2.890625 L 5.296875 -2.890625 C 5.578125 -2.890625 5.71875 -3.03125 5.71875 -3.3125 Z M 5.71875 -3.78125 "/></g></g></g><g fill="#b4b4b4" fill-opacity="1"><g transform="translate(221.262714, 83.181787)"><g><path d="M 7.390625 -0.8125 C 7.390625 -0.582031 7.3125 -0.390625 7.15625 -0.234375 C 7 -0.078125 6.804688 0 6.578125 0 L 1.515625 0 C 1.285156 0 1.09375 -0.078125 0.9375 -0.234375 C 0.789062 -0.390625 0.71875 -0.582031 0.71875 -0.8125 L 0.71875 -4.21875 C 0.71875 -4.457031 0.789062 -4.65625 0.9375 -4.8125 C 1.09375 -4.96875 1.285156 -5.046875 1.515625 -5.046875 L 6.578125 -5.046875 C 6.804688 -5.046875 7 -4.96875 7.15625 -4.8125 C 7.3125 -4.65625 7.390625 -4.457031 7.390625 -4.21875 Z M 5.9375 -1.375 L 5.9375 -3.671875 C 5.9375 -4.015625 5.757812 -4.1875 5.40625 -4.1875 L 2.671875 -4.1875 C 2.328125 -4.1875 2.15625 -4.015625 2.15625 -3.671875 L 2.15625 -1.375 C 2.15625 -1.03125 2.328125 -0.859375 2.671875 -0.859375 L 5.40625 -0.859375 C 5.5625 -0.859375 5.6875 -0.90625 5.78125 -1 C 5.882812 -1.09375 5.9375 -1.21875 5.9375 -1.375 Z M 5.9375 -1.375 "/></g></g></g><g fill="#b4b4b4" fill-opacity="1"><g transform="translate(231.42861, 83.181787)"><g><path d="M 7.328125 0 L 5.875 0 L 5.875 -1.546875 C 5.875 -1.703125 5.820312 -1.820312 5.71875 -1.90625 C 5.625 -2 5.5 -2.046875 5.34375 -2.046875 L 2.296875 -2.046875 C 2.148438 -2.046875 2.078125 -1.96875 2.078125 -1.8125 L 2.078125 0 L 0.640625 0 L 0.640625 -5.046875 L 6.5 -5.046875 C 6.726562 -5.046875 6.914062 -4.96875 7.0625 -4.8125 C 7.21875 -4.65625 7.296875 -4.457031 7.296875 -4.21875 L 7.296875 -3.4375 C 7.296875 -3.300781 7.191406 -3.140625 6.984375 -2.953125 C 6.773438 -2.773438 6.671875 -2.625 6.671875 -2.5 C 6.671875 -2.414062 6.78125 -2.273438 7 -2.078125 C 7.21875 -1.878906 7.328125 -1.660156 7.328125 -1.421875 Z M 5.875 -3.78125 C 5.875 -4.050781 5.734375 -4.1875 5.453125 -4.1875 L 2.296875 -4.1875 C 2.148438 -4.1875 2.078125 -4.113281 2.078125 -3.96875 L 2.078125 -3.109375 C 2.078125 -2.960938 2.148438 -2.890625 2.296875 -2.890625 L 5.453125 -2.890625 C 5.734375 -2.890625 5.875 -3.03125 5.875 -3.3125 Z M 5.875 -3.78125 "/></g></g></g><g fill="#b4b4b4" fill-opacity="1"><g transform="translate(241.407473, 83.181787)"><g><path d="M 6.71875 -4.140625 L 4.6875 -4.140625 C 4.375 -4.140625 4.21875 -4.007812 4.21875 -3.75 L 4.21875 0 L 2.828125 0 L 2.828125 -3.75 C 2.828125 -4.007812 2.679688 -4.140625 2.390625 -4.140625 L 0.34375 -4.140625 L 0.34375 -5.046875 L 6.71875 -5.046875 Z M 6.71875 -4.140625 "/></g></g></g><g fill="#b4b4b4" fill-opacity="1"><g transform="translate(250.573206, 83.181787)"><g/></g></g><g fill="#b4b4b4" fill-opacity="1"><g transform="translate(257.128829, 83.181787)"><g><path d="M 8.03125 -4.859375 L 5.640625 -4.859375 C 5.273438 -4.859375 5.09375 -4.707031 5.09375 -4.40625 L 5.09375 0 L 3.453125 0 L 3.453125 -4.40625 C 3.453125 -4.707031 3.28125 -4.859375 2.9375 -4.859375 L 0.53125 -4.859375 L 0.53125 -5.9375 L 8.03125 -5.9375 Z M 8.03125 -4.859375 "/></g></g></g><g fill="#b4b4b4" fill-opacity="1"><g transform="translate(267.725661, 83.181787)"><g><path d="M 6.46875 0 L 0.546875 0 L 0.546875 -5.046875 L 6.46875 -5.046875 L 6.46875 -4.1875 L 2.4375 -4.1875 C 2.257812 -4.1875 2.132812 -4.128906 2.0625 -4.015625 C 2.019531 -3.929688 2 -3.789062 2 -3.59375 C 2 -3.375 2.019531 -3.226562 2.0625 -3.15625 C 2.125 -3.03125 2.25 -2.96875 2.4375 -2.96875 L 6.125 -2.96875 L 6.125 -2.109375 L 2.4375 -2.109375 C 2.257812 -2.109375 2.132812 -2.054688 2.0625 -1.953125 C 2.019531 -1.867188 2 -1.726562 2 -1.53125 C 2 -1.300781 2.015625 -1.144531 2.046875 -1.0625 C 2.109375 -0.925781 2.238281 -0.859375 2.4375 -0.859375 L 6.46875 -0.859375 Z M 6.46875 0 "/></g></g></g><g fill="#b4b4b4" fill-opacity="1"><g transform="translate(276.696254, 83.181787)"><g><path d="M 8.140625 0 L 6.609375 0 C 6.460938 -0.300781 6.320312 -0.570312 6.1875 -0.8125 C 6.125 -0.914062 6.003906 -0.96875 5.828125 -0.96875 L 2.53125 -0.96875 C 2.332031 -0.96875 2.207031 -0.914062 2.15625 -0.8125 C 2.125 -0.75 1.984375 -0.476562 1.734375 0 L 0.203125 0 L 2.953125 -5.046875 L 5.375 -5.046875 Z M 5.546875 -2.015625 C 5.546875 -2.066406 5.523438 -2.132812 5.484375 -2.21875 L 4.5625 -4.03125 C 4.5 -4.175781 4.429688 -4.25 4.359375 -4.25 L 3.96875 -4.25 C 3.90625 -4.25 3.835938 -4.175781 3.765625 -4.03125 L 2.875 -2.234375 C 2.832031 -2.140625 2.8125 -2.070312 2.8125 -2.03125 C 2.8125 -1.894531 2.894531 -1.828125 3.0625 -1.828125 L 5.296875 -1.828125 C 5.460938 -1.828125 5.546875 -1.890625 5.546875 -2.015625 Z M 5.546875 -2.015625 "/></g></g></g><g fill="#b4b4b4" fill-opacity="1"><g transform="translate(287.219906, 83.181787)"><g><path d="M 10.265625 0 L 8.90625 0 L 8.90625 -3.859375 C 8.90625 -4.003906 8.851562 -4.078125 8.75 -4.078125 L 8.5625 -4.078125 C 8.5 -4.078125 8.425781 -4.003906 8.34375 -3.859375 L 6.09375 -0.109375 C 6.0625 -0.0351562 6 0 5.90625 0 L 5 0 C 4.914062 0 4.851562 -0.0351562 4.8125 -0.109375 L 2.5625 -3.859375 C 2.46875 -4.003906 2.390625 -4.078125 2.328125 -4.078125 L 2.15625 -4.078125 C 2.039062 -4.078125 1.984375 -4.003906 1.984375 -3.859375 L 1.984375 0 L 0.53125 0 L 0.53125 -5.03125 L 3.203125 -5.03125 L 5.15625 -2 C 5.21875 -1.875 5.316406 -1.8125 5.453125 -1.8125 C 5.597656 -1.8125 5.695312 -1.875 5.75 -2 L 7.6875 -5.03125 L 10.265625 -5.03125 Z M 10.265625 0 "/></g></g></g></g></g></svg>